<svg xmlns="http://www.w3.org/2000/svg" width="28" height="28" viewBox="0 0 28 28">
  <defs>
    <style>
      .cls-1 {
        fill: #60ba62;
        fill-rule: evenodd;
      }
    </style>
  </defs>
  <path id="Check-icon" class="cls-1" d="M14,0A14,14,0,1,0,28,14,14.016,14.016,0,0,0,14,0Zm0,26.923A12.923,12.923,0,1,1,26.923,14,12.938,12.938,0,0,1,14,26.923ZM20.6,8.258l-8.276,9.31L7.336,13.579a0.538,0.538,0,0,0-.673.841l5.385,4.308a0.539,0.539,0,0,0,.739-0.063L21.4,8.973A0.539,0.539,0,1,0,20.6,8.258Z"/>
</svg>
