<svg xmlns="http://www.w3.org/2000/svg" width="34" height="34" viewBox="0 0 34 34">
  <defs>
    <style>
      .cls-1 {
        fill: #60ba62;
        fill-rule: evenodd;
      }
    </style>
  </defs>
  <path id="Close-icon" class="cls-1" d="M29.02,4.98A17,17,0,1,0,4.98,29.02,17,17,0,1,0,29.02,4.98ZM27.654,27.654A15.066,15.066,0,0,1,6.346,6.346,15.066,15.066,0,0,1,27.654,27.654ZM24.491,9.509a0.963,0.963,0,0,0-1.367,0L17,15.633,10.875,9.509a0.966,0.966,0,0,0-1.367,1.367L15.633,17,9.509,23.125a0.97,0.97,0,0,0,.68,1.653,0.943,0.943,0,0,0,.68-0.286l6.124-6.125,6.125,6.125a0.972,0.972,0,0,0,.68.286,0.931,0.931,0,0,0,.68-0.286,0.963,0.963,0,0,0,0-1.367L18.367,17l6.125-6.125A0.963,0.963,0,0,0,24.491,9.509Z"/>
</svg>
