<svg xmlns="http://www.w3.org/2000/svg" width="39" height="25" viewBox="0 0 39 25">
  <defs>
    <style>
      .cls-1 {
        fill: #fff;
        fill-rule: evenodd;
      }
    </style>
  </defs>
  <path id="Credit_Card_Icon" data-name="Credit Card Icon" class="cls-1" d="M4.875,15.054H22.311v1.194H4.875V15.054Zm0,3.444h6.6v1.194h-6.6V18.5ZM35.939,0H3.06A3.033,3.033,0,0,0,0,3V22a3.032,3.032,0,0,0,3.06,3H35.939A3.033,3.033,0,0,0,39,22V3A3.034,3.034,0,0,0,35.939,0ZM3.06,1.194H35.939A1.825,1.825,0,0,1,37.781,3V4.922H1.219V3A1.825,1.825,0,0,1,3.06,1.194ZM37.781,6.116v4.028H1.219V6.116H37.781ZM35.939,23.806H3.06A1.825,1.825,0,0,1,1.219,22V11.337H37.781V22A1.825,1.825,0,0,1,35.939,23.806Z"/>
</svg>
