<svg xmlns="http://www.w3.org/2000/svg" width="64" height="64" viewBox="0 0 64 64">
  <defs>
    <style>
      .cls-1 {
        fill: #60ba62;
        fill-rule: evenodd;
      }
    </style>
  </defs>
  <path id="Fitness-icon" class="cls-1" d="M59.193,46.947l4.42,4.42a1.343,1.343,0,0,1,0,1.9L53.271,63.607a1.341,1.341,0,0,1-1.9,0l-4.421-4.42L42.73,63.409a1.34,1.34,0,0,1-1.9,0l-4.694-4.695-3.864,3.864a1.341,1.341,0,0,1-1.9,0l-5.37-5.37a1.343,1.343,0,0,1,0-1.9l11.521-11.52-16.305-16.3L8.7,39.005a1.341,1.341,0,0,1-1.9,0L1.437,33.635a1.342,1.342,0,0,1,0-1.9L5.3,27.875,0.6,23.18a1.343,1.343,0,0,1,0-1.9l4.222-4.221L0.406,12.64a1.343,1.343,0,0,1,0-1.9L10.747,0.4a1.341,1.341,0,0,1,1.9,0l4.421,4.42L21.288,0.6a1.34,1.34,0,0,1,1.9,0l4.695,4.7L31.743,1.43a1.341,1.341,0,0,1,1.9,0L39.01,6.8a1.343,1.343,0,0,1,0,1.9L27.49,20.217l16.3,16.3L55.316,25a1.341,1.341,0,0,1,1.9,0l5.37,5.369a1.343,1.343,0,0,1,0,1.9L58.72,36.132l4.7,4.7a1.343,1.343,0,0,1,0,1.9ZM11.7,3.247L3.254,11.69l3.469,3.47,8.443-8.443ZM52.322,60.76l8.443-8.443L57.3,48.845l-2.447,2.446-6,6ZM22.236,3.446L3.45,22.23,6.921,25.7,25.7,6.916Zm13.926,4.3L32.691,4.278,4.284,32.686l3.469,3.471ZM25.756,22.279l-3.471,3.47L38.427,41.89,41.9,38.42Zm33.979,9.04-3.471-3.47L44.825,39.288c-0.026.031-.036,0.069-0.065,0.1l-5.368,5.369c-0.029.03-.07,0.042-0.1,0.068L27.855,56.257l3.471,3.471ZM57.1,38.305L38.312,57.09l3.469,3.471L60.567,41.777Z"/>
</svg>
