<svg xmlns="http://www.w3.org/2000/svg" width="76" height="76" viewBox="0 0 76 76">
  <defs>
    <style>
      .cls-1 {
        fill: #60ba62;
        fill-rule: evenodd;
      }
    </style>
  </defs>
  <path id="Gluten-free-icon" class="cls-1" d="M38,76a38,38,0,1,1,38-38A38.045,38.045,0,0,1,38,76ZM38,2.449A35.519,35.519,0,0,0,12.026,62.228L22.573,51.682a19.082,19.082,0,0,1-.189-2.65,1.927,1.927,0,0,1,.621-1.355,1.906,1.906,0,0,1,1.285-.5l0.125,0a21.4,21.4,0,0,1,2.373.283l0.364-.364c-3.033-4.226-2.725-9.821-2.721-9.881a1.907,1.907,0,0,1,1.9-1.788l0.178,0.008a18.7,18.7,0,0,1,2.606.432c-0.1-.118-0.206-0.221-0.309-0.344-3.555-4.232-2.47-10.63-2.422-10.9a1.907,1.907,0,0,1,2.268-1.535,15.929,15.929,0,0,1,4.867,1.824,10.916,10.916,0,0,1-.946-4.542c0.115-5.146,4.354-8.962,4.837-9.38a2,2,0,0,1,2.613.058c0.465,0.44,4.528,4.44,4.414,9.588a10.868,10.868,0,0,1-1.11,4.409,15.4,15.4,0,0,1,5.032-1.957,1.912,1.912,0,0,1,1.465.292,1.871,1.871,0,0,1,.515.527l11.89-11.89A35.406,35.406,0,0,0,38,2.449Zm0.517,28.17c0.026-.059.056-0.117,0.083-0.176-0.048.006-.092,0.027-0.14,0.03C38.479,30.523,38.493,30.571,38.514,30.62Zm0.753,9.744a1.843,1.843,0,0,1-.761-0.2,1.855,1.855,0,0,1-.765.205c-0.126,0-.253,0-0.381.005l-0.51.51A14.194,14.194,0,0,1,38.5,43.906a13.86,13.86,0,0,1,2.082-3.594,8.25,8.25,0,0,1-.868.058C39.566,40.37,39.419,40.368,39.267,40.364Zm-4.155,2.252L30.531,47.2a13.227,13.227,0,0,0,5.359,2.858l0.4,0c0.3,0,.664.008,0.984,0.006,0-.153.009-0.335,0.019-0.537A13.566,13.566,0,0,0,35.112,42.616Zm-1.627-1.846a11.9,11.9,0,0,0-6.6-2.815,14.944,14.944,0,0,0,2.04,7.377Zm2.927-2.927,0.85-.85c0.074-2.869-.655-9.411-8.531-11.36-0.155,1.506-.325,5.6,1.958,8.318C32.63,36.259,34.511,37.54,36.412,37.842Zm1.929-10.005c0.961-.949,3.564-3.83,3.641-7.249s-2.4-6.417-3.315-7.406c-0.962.94-3.56,3.792-3.637,7.25C34.954,23.854,37.428,26.85,38.341,27.837Zm1.606,6.471,8.361-8.361c-0.009-.1-0.016-0.228-0.025-0.315C42.358,27.1,40.484,31.155,39.947,34.307Zm-0.131,3.6c2.172-.039,4.3-1.335,6.508-3.962a9,9,0,0,0,1.851-4.4Zm-0.09,11.651c0.01,0.19.015,0.356,0.018,0.5,0.319,0,.681,0,0.984-0.006l0.4,0a12.887,12.887,0,0,0,6.2-3.7c2.436-2.761,2.768-6.89,2.8-8.4C40.952,39.116,39.833,46.838,39.726,49.562ZM39.76,63.146c0.168,0.009.351,0.015,0.549,0.015a11.237,11.237,0,0,0,8.412-3.916c2.887-3.133,3.362-7.92,3.439-9.567C40.591,50.735,39.794,60.9,39.76,63.146Zm1.355-10.634-0.355,0c-0.248,0-.524.007-0.8,0.007a13.254,13.254,0,0,1-1.447-.063,13.25,13.25,0,0,1-1.449.063c-0.28,0-.557,0-0.8-0.007L35.842,52.5A15.836,15.836,0,0,1,38.5,56.974,15.81,15.81,0,0,1,41.115,52.512ZM27.563,50.165l-2.36,2.36a13.853,13.853,0,0,0,3.089,6.72A11.236,11.236,0,0,0,36.7,63.161h0c0.2,0,.381-0.006.549-0.015C37.223,61.107,36.533,52.454,27.563,50.165Zm36.4-36.4L50.816,26.912c0.039,2.307-.331,5.9-2.61,8.618-0.1.12-.2,0.222-0.3,0.338a18.888,18.888,0,0,1,2.6-.426l0.179-.008a1.908,1.908,0,0,1,1.9,1.783c0,0.071.315,6.154-3.131,10.407a20.717,20.717,0,0,1,3.15-.441l0.122,0a1.907,1.907,0,0,1,1.906,1.845c0,0.077.161,7.261-4.1,11.887a13.635,13.635,0,0,1-10.219,4.708,11.872,11.872,0,0,1-1.8-.14,11.87,11.87,0,0,1-1.8.14h0a13.634,13.634,0,0,1-10.218-4.708,15.255,15.255,0,0,1-3.326-6.342l-9.4,9.4A35.52,35.52,0,0,0,63.967,13.761Z"/>
</svg>
