<svg xmlns="http://www.w3.org/2000/svg" width="39" height="34" viewBox="0 0 39 34">
  <defs>
    <style>
      .cls-1 {
        fill: #60ba62;
        fill-rule: evenodd;
      }
    </style>
  </defs>
  <path id="Heart-icon" class="cls-1" d="M38.949,11.247c-0.89,9.7-15.059,19.971-17.89,21.931l-0.424.3A2.072,2.072,0,0,1,19.479,34a1.985,1.985,0,0,1-1.135-.521c-0.14-.105-0.312-0.234-0.531-0.387a73.666,73.666,0,0,1-9.418-7.841,0.861,0.861,0,0,1-.009-1.209,0.839,0.839,0,0,1,1.2-.009,72.094,72.094,0,0,0,9.191,7.651c0.239,0.166.426,0.306,0.578,0.42l0.137,0.1,0.161-.119c0.126-.091.274-0.2,0.454-0.324A70.292,70.292,0,0,0,31.626,21.65h-5.3a0.847,0.847,0,0,1-.811-0.613l-1.564-5.35c-1.153,3.689-2.2,6.512-3.559,10.156L19.9,27.154a0.846,0.846,0,0,1-.792.555H19.1a0.846,0.846,0,0,1-.79-0.57L16.388,21.65H13.531a0.849,0.849,0,0,1-.831-0.692l-1.566-8.152-1.35,8.131a0.849,0.849,0,0,1-.834.714H0.831a0.855,0.855,0,0,1,0-1.711h7.4L10.239,7.862a0.848,0.848,0,0,1,.823-0.713h0.011a0.849,0.849,0,0,1,.831.692l2.324,12.1h2.758a0.847,0.847,0,0,1,.8.57l1.35,3.851c1.492-4.016,2.627-7.137,4.016-11.886a0.843,0.843,0,0,1,1.622,0l2.183,7.465h6.1c2.236-2.848,3.942-5.912,4.211-8.85A7.859,7.859,0,0,0,34.8,4.543,9.479,9.479,0,0,0,28.015,1.7c-6.072,0-6.691,2.916-7.143,5.044A3.9,3.9,0,0,1,20.1,8.72a0.839,0.839,0,0,1-1.2,0,3.9,3.9,0,0,1-.774-1.974C17.672,4.618,17.053,1.7,10.98,1.7A9.479,9.479,0,0,0,4.2,4.543C0.9,7.875.839,12.019,4.012,17.211a0.861,0.861,0,0,1-.275,1.177,0.841,0.841,0,0,1-1.165-.278C-0.972,12.309-.824,7.2,3,3.333A11.155,11.155,0,0,1,10.98-.008c6.262,0,7.879,2.947,8.518,5.213,0.638-2.266,2.255-5.213,8.517-5.213A11.156,11.156,0,0,1,36,3.333,9.612,9.612,0,0,1,38.949,11.247Z"/>
</svg>
