<svg xmlns="http://www.w3.org/2000/svg" width="71" height="74" viewBox="0 0 71 74">
  <defs>
    <style>
      .cls-1 {
        fill: #60ba62;
        fill-rule: evenodd;
      }
    </style>
  </defs>
  <path id="New-mom-icon" class="cls-1" d="M29.883,30.221a15.582,15.582,0,0,0,18.293-23.1,15.615,15.615,0,0,0-28.742,8.409A15.781,15.781,0,0,0,29.883,30.221ZM32.5,3.487a13.269,13.269,0,0,1,4.171-.165,12.6,12.6,0,0,1,4.078,1.3,12.417,12.417,0,0,1,5.631,6.025,13.253,13.253,0,0,1,.97,3.944,11.831,11.831,0,0,1-.45,4.363,12.357,12.357,0,0,1-20.269,5.592A12.307,12.307,0,0,1,22.7,15.534,12.445,12.445,0,0,1,32.5,3.487ZM70.721,64.957a26.213,26.213,0,0,0-1.6-4.609L60.66,39.263c-0.293-.732-0.58-1.466-0.9-2.187-0.73-1.644-1.9-3.829-3.967-3.829H15.345a6.808,6.808,0,0,0-1.809.095c-1.208.342-2.014,1.578-2.632,2.579a23.867,23.867,0,0,0-1.413,2.729C8.541,40.758,7.77,42.96,6.925,45.113Q4.555,51.15,2.185,57.187L0.073,62.565A1.217,1.217,0,0,0,0,63.152a1.58,1.58,0,0,0,.044.57,1.662,1.662,0,0,0,2.009,1.138c4.117-.839,8.811-1.739,13.368-2.623v10.1a1.634,1.634,0,0,0,3.266,0V61.718c0-.04,0-0.079-0.006-0.118,1.3-.255,2.571-0.507,3.8-0.754A15.374,15.374,0,0,0,22.4,62.5a8.632,8.632,0,0,0,3.282,6.983c2.174,1.669,5.223,1.76,7.818,1.384a19.755,19.755,0,0,0,3.026-.694,5.518,5.518,0,0,0,3.361,3.6,5.647,5.647,0,0,0,1.939.195h4.508l17.694,0.006c2.473-.02,5.084-0.841,6.254-3.2A9.012,9.012,0,0,0,70.721,64.957ZM36.061,66.89c-0.115.039-.229,0.08-0.345,0.118a19.958,19.958,0,0,1-2.074.543c-0.168.035-.337,0.065-0.507,0.095,0,0-.27.041-0.323,0.052-0.346.043-.693,0.071-1.041,0.09a11.137,11.137,0,0,1-1.689-.047c-0.03-.007-0.25-0.036-0.284-0.042-0.14-.025-0.279-0.057-0.418-0.089a7.352,7.352,0,0,1-.924-0.283l-0.022-.009-0.083-.04c-0.12-.056-0.237-0.119-0.354-0.182a5.581,5.581,0,0,1-.548-0.348,1.761,1.761,0,0,0-.19-0.162c-0.1-.088-0.191-0.182-0.284-0.277-0.063-.064-0.122-0.132-0.181-0.2,0.058,0.062-.18-0.239-0.215-0.293a5.931,5.931,0,0,1-.389-0.692c-0.012-.025-0.023-0.046-0.032-0.063s-0.009-.025-0.016-0.041c-0.05-.127-0.092-0.257-0.135-0.386a7.617,7.617,0,0,1-.21-0.812c-0.025-.12-0.046-0.24-0.065-0.36A1.52,1.52,0,0,0,25.7,63.1a11.8,11.8,0,0,1,.014-1.864c0.013-.159.03-0.317,0.048-0.476a2.085,2.085,0,0,0,.184.147,25.536,25.536,0,0,0,10.263,4.317A11.08,11.08,0,0,0,36.061,66.89Zm1.4-4.743A21.815,21.815,0,0,1,29.466,59.3l0.077-.031a4.727,4.727,0,0,0,2.475-2.736A20.2,20.2,0,0,0,40.875,59.8a15.808,15.808,0,0,0,6.562-.618q-0.544.625-1.128,1.218l-4.6.018a6.459,6.459,0,0,0-2.612.47A4.108,4.108,0,0,0,37.459,62.147ZM50.42,42.506c0.11,0.1.214,0.2,0.319,0.3s0.2,0.209.3,0.317c0.056,0.064.111,0.13,0.165,0.2l0.03,0.04a7.256,7.256,0,0,1,.461.732c0.071,0.127.134,0.256,0.2,0.387l0.041,0.082,0.025,0.065a8.562,8.562,0,0,1,.472,1.768c-0.013-.066.031,0.277,0.034,0.3,0.015,0.158.023,0.317,0.031,0.475,0.017,0.324.011,0.65,0,.975a8.9,8.9,0,0,1-.251,1.946,16.3,16.3,0,0,1-1.081,3.316,1.922,1.922,0,0,0-.247.188,12.634,12.634,0,0,1-10.042,2.952l-0.14-.016q-0.165-.024-0.33-0.051c-0.242-.04-0.482-0.089-0.722-0.138-0.485-.1-0.964-0.231-1.438-0.373a14.6,14.6,0,0,1-2.6-1.05,16.964,16.964,0,0,1-3.014-1.961l1.614,0.285,0.137,0.024a2.085,2.085,0,0,0,.769-0.005c1.075,0.374,2.791-.492,3.76-0.905,0.919-.391,1.831-0.8,2.738-1.214a2.882,2.882,0,0,0,1.837-.626,1.989,1.989,0,0,0,.6-1.672,5.112,5.112,0,0,0-.074-1.313,2.472,2.472,0,0,0-1.515-1.518q-1.227-1.122-2.477-2.22-0.508-.445-1.029-0.875a18.836,18.836,0,0,1,2.5-1.075,17.349,17.349,0,0,1,2.122-.575,9.149,9.149,0,0,1,1.943-.219c0.323-.011.649,0,0.973,0.015,0.157,0.008.315,0.022,0.473,0.037l0.084,0.007,0.1,0.016a8.711,8.711,0,0,1,1.751.476c0.015,0.009.238,0.108,0.265,0.12,0.13,0.064.257,0.134,0.383,0.2a6.96,6.96,0,0,1,.639.413A1.745,1.745,0,0,0,50.42,42.506ZM36.99,50.6l0.008,0L37,50.617Zm3.032-2.438,0.112,0.1q-0.826.377-1.658,0.747-0.484.213-.97,0.424l-0.351.15c0.032-.015-0.348.144-0.418,0.172-0.273.112-.548,0.218-0.825,0.316-0.039.014-.079,0.025-0.119,0.038a1.548,1.548,0,0,0-.358.057,1.18,1.18,0,0,0-.183-0.048L25.367,48.38l-2.7-.477c0.02-.109.039-0.219,0.058-0.328Q23,45.989,23.283,44.4q0.162-.916.325-1.831l3.266,0.576L35.9,44.74c0.035,0.006.07,0.009,0.1,0.015a1.727,1.727,0,0,0,.207.085c0.035,0.023.068,0.048,0.1,0.073l0.045,0.036c0.137,0.11.272,0.222,0.408,0.335,0.591,0.493,1.168,1,1.744,1.515Q39.268,47.477,40.022,48.165ZM40.878,70.7c-0.08-.007-0.13-0.016,0,0h0Zm26.833-2.577c0,0.024-.006.062-0.01,0.1q-0.023.13-.05,0.26a5.422,5.422,0,0,1-.162.575c-0.006.018-.017,0.044-0.028,0.073q-0.064.131-.135,0.258c-0.048.087-.1,0.171-0.159,0.254l0,0c-0.064.075-.131,0.144-0.2,0.212-0.04.041-.181,0.158-0.224,0.2a4.706,4.706,0,0,1-.427.25c-0.027.014-.1,0.046-0.156,0.071-0.129.047-.262,0.089-0.394,0.128a6.153,6.153,0,0,1-.759.162,1.179,1.179,0,0,0-.283.023c-0.23.017-.461,0.02-0.692,0.022L43.705,70.7H41.029c-0.058-.014-0.115-0.029-0.171-0.048-0.077-.034-0.224-0.1-0.29-0.136s-0.11-.069-0.164-0.1l0,0a3.017,3.017,0,0,1-.3-0.3c-0.026-.037-0.11-0.148-0.137-0.189a4.4,4.4,0,0,1-.245-0.446c-0.005-.011-0.009-0.017-0.013-0.026-0.008-.025-0.02-0.057-0.037-0.106-0.054-.146-0.1-0.3-0.138-0.445a4.943,4.943,0,0,1-.16-0.8,9.107,9.107,0,0,1,.049-2.391,6.171,6.171,0,0,1,.251-0.907,0.1,0.1,0,0,0,.007-0.02c0.011-.019.025-0.047,0.046-0.09,0.054-.111.119-0.217,0.183-0.323,0.018-.03.067-0.1,0.1-0.144s0.078-.085.119-0.126c0.024-.026.051-0.05,0.078-0.074,0.048-.04.13-0.1,0.174-0.13s0.193-.1.278-0.137c0.07-.021.139-0.04,0.209-0.057l0.037-.01c0.035,0,.07-0.006.1-0.006,0.212,0,.424,0,0.636,0l14.9-.061a1.629,1.629,0,0,0,0-3.257l-5.89.024c3.8-4.752,6.958-11.9,3.93-17.813-1.942-3.791-6.37-5.169-10.376-4.677a21.209,21.209,0,0,0-8.962,3.435l-8.366-1.475-3.565-.629a2.318,2.318,0,0,0-2.778,2.036Q20.3,42.6,20.064,43.927q-0.274,1.549-.549,3.1c-0.043.242-.094,0.486-0.139,0.732l-4.65.884a1.634,1.634,0,0,0-1.141,2,1.665,1.665,0,0,0,2.009,1.137l5.137-.976a14.7,14.7,0,0,0,2.744.536l5.845,1.03a9.12,9.12,0,0,1,.013,1.535c0-.015-0.043.352-0.041,0.369-0.023.136-.053,0.269-0.084,0.4s-0.078.291-.124,0.435c-0.011.034-.078,0.2-0.1,0.251a4.549,4.549,0,0,1-.292.5v0.005c-0.083.1-.175,0.186-0.267,0.274l-0.05.048c-0.021.013-.045,0.028-0.077,0.049a2.787,2.787,0,0,1-.26.147l-0.02.006a1.538,1.538,0,0,1-.175.046c-0.622.13-1.246,0.254-1.869,0.381L14.522,59.15c-3.035.618-6.956,1.329-10.4,1.989q3.266-8.32,6.533-16.64L12.1,40.811c0.041-.105.159-0.394,0.2-0.5,0.247-.556.515-1.1,0.8-1.64,0.262-.5.543-0.99,0.849-1.463,0.073-.114.151-0.224,0.229-0.335l0.04-.06L14.23,36.8c0.049-.06.193-0.2,0.3-0.3H55.638q0.09,0.089.173,0.187a2.582,2.582,0,0,0,.159.221c0.081,0.119.156,0.242,0.23,0.366,0.149,0.244.282,0.5,0.412,0.753,0.116,0.227.223,0.458,0.327,0.69,0.013,0.027.034,0.077,0.054,0.122l0.052,0.125c0.06,0.154.121,0.308,0.183,0.462q0.648,1.618,1.3,3.237,2.35,5.857,4.7,11.715l3.5,8.72c0.192,0.478.373,0.955,0.522,1.449,0.093,0.306.173,0.615,0.246,0.925,0.04,0.175.076,0.353,0.111,0.53,0.017,0.09.064,0.419,0.078,0.508a9.764,9.764,0,0,1,.052,1.006C67.739,67.719,67.728,67.921,67.711,68.121Z"/>
</svg>
