<svg xmlns="http://www.w3.org/2000/svg" width="27" height="35" viewBox="0 0 27 35">
  <defs>
    <style>
      .cls-1 {
        fill: #60ba62;
        fill-rule: evenodd;
      }
    </style>
  </defs>
  <path id="Bank_Transfer_Icon" data-name="Bank Transfer Icon" class="cls-1" d="M0.418,23.033c-0.01-.363-0.02-0.8-0.04-1.3a13.8,13.8,0,0,1,.158-1.687,8.535,8.535,0,0,1,.4-2,10.447,10.447,0,0,1,.773-2.185c0.178-.373.354-0.745,0.529-1.131,0.2-.373.462-0.718,0.7-1.081a13.388,13.388,0,0,1,1.646-2.08A23.551,23.551,0,0,1,6.543,9.736c0.725-.5,1.413-1.072,2.148-1.484a21.743,21.743,0,0,1,2.145-1.17c0.7-.373,1.382-0.623,2.01-0.89,0.971-.373,1.832-0.662,2.549-0.863a13.444,13.444,0,0,1-.745-2.251A11.885,11.885,0,0,1,14.265.484,12.8,12.8,0,0,1,16.747,1.5a16.794,16.794,0,0,1,2.087,1.3,20.293,20.293,0,0,1,3.43,3.19,2.582,2.582,0,0,1,.253,3.046L22.4,9.229a20.314,20.314,0,0,1-3.362,4.176,16.694,16.694,0,0,1-2.185,1.773c-0.412.257-.843,0.517-1.275,0.765a10.4,10.4,0,0,1-1.45.662,10.126,10.126,0,0,1,.01-1.562c0.048-.488.115-0.976,0.2-1.454a14.707,14.707,0,0,1,.735-2.683c0.028-.086.068-0.174,0.108-0.27-0.314.039-.627,0.088-0.981,0.135-0.549.115-1.167,0.191-1.794,0.365a17.883,17.883,0,0,0-1.949.574c-0.7.2-1.315,0.547-2.02,0.824a17.375,17.375,0,0,0-1.929,1.14,10.615,10.615,0,0,0-1.746,1.418C4.5,15.36,4.2,15.6,3.966,15.877s-0.452.576-.667,0.863A9.538,9.538,0,0,0,2.182,18.5a7.854,7.854,0,0,0-.765,1.744A11.847,11.847,0,0,0,.908,21.8c-0.1.488-.176,0.9-0.243,1.246-0.128.709-.208,1.111-0.208,1.111S0.448,23.742.418,23.033h0ZM0.142,27.625L0.08,24.159S0.072,23.748.042,23.048L0.036,22.82C0.027,22.506.019,22.144,0,21.745a5.483,5.483,0,0,1,.081-1.078c0.03-.21.06-0.426,0.079-0.652a8.95,8.95,0,0,1,.42-2.093l0.1-.36a8.642,8.642,0,0,1,.7-1.879c0.167-.351.342-0.723,0.516-1.105A8.17,8.17,0,0,1,2.39,13.79c0.077-.113.154-0.226,0.229-0.34a13.385,13.385,0,0,1,1.639-2.08,12.1,12.1,0,0,1,1.36-1.31c0.223-.193.447-0.386,0.665-0.589,0.287-.2.527-0.38,0.766-0.556A14.5,14.5,0,0,1,8.5,7.933,22.032,22.032,0,0,1,10.674,6.75a16.262,16.262,0,0,1,1.533-.692l0.487-.2c0.8-.309,1.537-0.564,2.2-0.763a13.556,13.556,0,0,1-.608-1.933A12.342,12.342,0,0,1,13.889.492l-0.011-.5,0.49,0.135A13.128,13.128,0,0,1,16.92,1.173a16.874,16.874,0,0,1,2.137,1.332A20.608,20.608,0,0,1,22.55,5.754a2.948,2.948,0,0,1,.292,3.47l-0.117.194A20.474,20.474,0,0,1,19.3,13.67a17.12,17.12,0,0,1-2.232,1.81c-0.429.268-.863,0.53-1.3,0.781a10.626,10.626,0,0,1-1.508.689l-0.472.174-0.035-.492a10.327,10.327,0,0,1,.01-1.618c0.049-.5.117-1,0.2-1.485a15.3,15.3,0,0,1,.639-2.444l-0.356.049c-0.169.037-.375,0.074-0.587,0.111-0.371.066-.761,0.135-1.154,0.244a17.228,17.228,0,0,0-1.927.566,9.418,9.418,0,0,0-1.23.485c-0.251.114-.507,0.229-0.774,0.334-0.162.1-.387,0.222-0.615,0.344a8.348,8.348,0,0,0-1.22.741,10.513,10.513,0,0,0-1.7,1.38c-0.11.111-.217,0.212-0.325,0.312a6.073,6.073,0,0,0-.457.46c-0.214.274-.439,0.562-0.654,0.847A6.8,6.8,0,0,0,2.724,18.3l-0.213.383a7.6,7.6,0,0,0-.736,1.676c-0.065.2-.139,0.394-0.21,0.583a5.113,5.113,0,0,0-.285.914L1.034,23.112c-0.127.707-.209,1.112-0.209,1.112ZM14.668,0.993a12.9,12.9,0,0,0,.348,2,12.963,12.963,0,0,0,.725,2.194L15.9,5.569,15.5,5.683c-0.733.206-1.578,0.493-2.514,0.853l-0.484.2a15.694,15.694,0,0,0-1.482.67A21.142,21.142,0,0,0,8.891,8.565,13.68,13.68,0,0,0,7.5,9.5c-0.245.181-.491,0.362-0.741,0.534-0.181.175-.413,0.375-0.643,0.575A11.261,11.261,0,0,0,4.872,11.8a13.142,13.142,0,0,0-1.61,2.03c-0.086.133-.167,0.25-0.246,0.368a7.629,7.629,0,0,0-.444.7c-0.165.367-.343,0.741-0.522,1.116a8.009,8.009,0,0,0-.641,1.742L1.3,18.145a8.235,8.235,0,0,0-.387,1.937c-0.018.229-.05,0.459-0.081,0.679,0.009-.025.018-0.051,0.028-0.076,0.068-.178.137-0.362,0.2-0.552a8.241,8.241,0,0,1,.8-1.823l0.2-.36A7.316,7.316,0,0,1,3.015,16.5c0.2-.264.425-0.556,0.652-0.844a6.627,6.627,0,0,1,.524-0.532c0.1-.093.2-0.187,0.3-0.284a10.777,10.777,0,0,1,1.8-1.462,8.873,8.873,0,0,1,1.313-.8c0.217-.116.433-0.23,0.64-0.353,0.31-.127.555-0.237,0.8-0.346a9.816,9.816,0,0,1,1.312-.516,17.787,17.787,0,0,1,1.974-.58c0.4-.111.812-0.186,1.206-0.255,0.2-.036.4-0.072,0.592-0.111l1.655-.22-0.248.586c-0.051.124-.076,0.181-0.1,0.237a14.437,14.437,0,0,0-.723,2.638c-0.08.467-.146,0.946-0.192,1.426a9.787,9.787,0,0,0-.033.992,9.692,9.692,0,0,0,.912-0.446c0.422-.243.85-0.5,1.257-0.756a16.319,16.319,0,0,0,2.124-1.726,19.67,19.67,0,0,0,3.3-4.1L22.2,8.848a2.225,2.225,0,0,0-.218-2.617A19.885,19.885,0,0,0,18.611,3.1,16.426,16.426,0,0,0,16.57,1.824,13.765,13.765,0,0,0,14.668.993Zm6.068,20.125a18.054,18.054,0,0,1-1.892,1.2c-0.7.3-1.3,0.662-1.99,0.883a18.435,18.435,0,0,1-1.942.63c-0.617.191-1.234,0.289-1.774,0.422-0.344.059-.665,0.106-0.979,0.155a2.172,2.172,0,0,1,.105-0.27,15.638,15.638,0,0,0,.647-2.7c0.07-.481.118-0.969,0.148-1.466a10.265,10.265,0,0,0-.03-1.562,11.144,11.144,0,0,0-1.43.709c-0.432.26-.843,0.527-1.255,0.807A16.835,16.835,0,0,0,8.219,21.75a20.309,20.309,0,0,0-3.234,4.272l-0.108.191a2.579,2.579,0,0,0,.354,3.046,19.956,19.956,0,0,0,3.518,3.085,16.318,16.318,0,0,0,2.138,1.246,12.15,12.15,0,0,0,2.5.939,12.353,12.353,0,0,0-.462-2.587,15.364,15.364,0,0,0-.8-2.222c0.695-.23,1.548-0.537,2.509-0.939,0.627-.287,1.3-0.557,1.99-0.949A19.912,19.912,0,0,0,18.726,26.6c0.715-.422,1.39-1.025,2.1-1.543a20.363,20.363,0,0,0,1.9-1.886,13.339,13.339,0,0,0,1.588-2.126c0.216-.375.472-0.718,0.657-1.1,0.165-.383.334-0.765,0.5-1.138a10.409,10.409,0,0,0,.705-2.214,7.949,7.949,0,0,0,.334-2.011,11.481,11.481,0,0,0,.108-1.687c-0.027-.5-0.048-0.937-0.078-1.3-0.04-.709-0.068-1.111-0.068-1.111s-0.06.4-.178,1.1c-0.058.346-.125,0.768-0.206,1.256a11.728,11.728,0,0,1-.459,1.572,8.429,8.429,0,0,1-.707,1.761,9.4,9.4,0,0,1-1.056,1.793c-0.216.287-.432,0.584-0.637,0.88a9.93,9.93,0,0,1-.785.8,10.332,10.332,0,0,1-1.7,1.476h0ZM13.786,35l-0.49-.115a12.517,12.517,0,0,1-2.575-.965,16.557,16.557,0,0,1-2.188-1.274A20.371,20.371,0,0,1,4.95,29.5a2.939,2.939,0,0,1-.4-3.47l0.107-.189A20.664,20.664,0,0,1,7.95,21.493a17.274,17.274,0,0,1,2.171-1.867c0.428-.291.845-0.562,1.283-0.824a11.4,11.4,0,0,1,1.484-.736l0.474-.192,0.045,0.5a10.441,10.441,0,0,1,.031,1.615c-0.032.53-.081,1.021-0.152,1.5a15.907,15.907,0,0,1-.563,2.458c0.115-.019.232-0.037,0.353-0.059,0.165-.041.368-0.084,0.576-0.128,0.369-.078.759-0.16,1.149-0.281a18.165,18.165,0,0,0,1.92-.623,9.138,9.138,0,0,0,1.193-.514c0.252-.123.51-0.248,0.782-0.364,0.159-.11.392-0.242,0.625-0.376a7.923,7.923,0,0,0,1.171-.761l0.017-.014a10.009,10.009,0,0,0,1.646-1.42l0.27-.266a5.106,5.106,0,0,0,.5-0.526c0.2-.283.414-0.583,0.632-0.874a6.745,6.745,0,0,0,.835-1.367L24.584,16a7.971,7.971,0,0,0,.679-1.7c0.061-.207.13-0.41,0.2-0.6a4.94,4.94,0,0,0,.255-0.91c0.078-.5.147-0.926,0.206-1.272,0.118-.692.176-1.091,0.176-1.093l0.5-3.391,0.25,3.418s0.029,0.4.069,1.116c0.02,0.242.037,0.527,0.054,0.84l0.024,0.461a5.516,5.516,0,0,1-.049,1.123c-0.022.2-.044,0.4-0.059,0.608a8.215,8.215,0,0,1-.351,2.1l-0.1.389a8.384,8.384,0,0,1-.632,1.879c-0.157.356-.323,0.736-0.49,1.118a6.966,6.966,0,0,1-.421.731c-0.086.135-.171,0.269-0.252,0.409a13.619,13.619,0,0,1-1.63,2.183,11.6,11.6,0,0,1-1.32,1.348c-0.2.184-.407,0.369-0.6,0.56-0.277.207-.51,0.39-0.742,0.572a13.131,13.131,0,0,1-1.428,1.025,19.545,19.545,0,0,1-2.132,1.249,15.934,15.934,0,0,1-1.524.742l-0.475.212c-0.713.3-1.437,0.575-2.165,0.825a15.927,15.927,0,0,1,.664,1.907,12.79,12.79,0,0,1,.473,2.663ZM12.692,18.956c-0.3.139-.593,0.3-0.9,0.474-0.42.254-.826,0.517-1.232,0.791A16.639,16.639,0,0,0,8.491,22a19.828,19.828,0,0,0-3.178,4.2l-0.107.188a2.219,2.219,0,0,0,.3,2.621,19.55,19.55,0,0,0,3.454,3.03,15.95,15.95,0,0,0,2.091,1.218,13,13,0,0,0,1.912.776,13.719,13.719,0,0,0-.407-2,15.133,15.133,0,0,0-.784-2.167L11.61,29.5,12,29.372c0.838-.278,1.674-0.589,2.482-0.928l0.472-.212a15.394,15.394,0,0,0,1.475-.717,19.225,19.225,0,0,0,2.088-1.224,12.6,12.6,0,0,0,1.362-.978c0.238-.187.478-0.375,0.72-0.553,0.162-.163.37-0.353,0.578-0.544a10.782,10.782,0,0,0,1.25-1.271,12.967,12.967,0,0,0,1.556-2.08c0.088-.152.179-0.3,0.272-0.44a6.612,6.612,0,0,0,.375-0.643c0.162-.371.328-0.754,0.495-1.129a7.816,7.816,0,0,0,.581-1.74l0.105-.418a7.8,7.8,0,0,0,.323-1.942c0.012-.221.037-0.436,0.059-0.642l0.007-.05c-0.01.024-.017,0.047-0.024,0.071-0.064.184-.13,0.375-0.186,0.572a8.822,8.822,0,0,1-.738,1.838l-0.181.356a7.332,7.332,0,0,1-.919,1.494c-0.2.267-.412,0.558-0.615,0.852a5.733,5.733,0,0,1-.586.621l-0.24.233A10.791,10.791,0,0,1,20.973,21.4a8.542,8.542,0,0,1-1.274.831c-0.22.127-.441,0.253-0.647,0.386-0.316.141-.561,0.261-0.8,0.378a9.839,9.839,0,0,1-1.277.548,18.407,18.407,0,0,1-1.964.636c-0.393.123-.807,0.211-1.2,0.295-0.2.042-.394,0.083-0.578,0.128-0.272.047-.5,0.083-0.733,0.117l-0.864.135L11.8,24.3a2.33,2.33,0,0,1,.116-0.3,15.3,15.3,0,0,0,.625-2.618c0.067-.458.115-0.927,0.145-1.437A9.155,9.155,0,0,0,12.692,18.956Z"/>
</svg>
