<svg xmlns="http://www.w3.org/2000/svg" width="70" height="69" viewBox="0 0 70 69">
  <defs>
    <style>
      .cls-1 {
        fill: #60ba62;
        stroke: #60ba62;
        stroke-width: 1px;
        fill-rule: evenodd;
      }
    </style>
  </defs>
  <path id="Vegetarian-icon" class="cls-1" d="M68.576,15.322a31.813,31.813,0,0,0-5.938.652,13.91,13.91,0,0,1,2.222,1.7A8.371,8.371,0,0,0,68.7,19.94a1.41,1.41,0,0,1,1.021,1.725,1.427,1.427,0,0,1-1.383,1.054,1.4,1.4,0,0,1-.364-0.046,11.134,11.134,0,0,1-5.03-2.9,7.147,7.147,0,0,0-4.675-2.262,1.429,1.429,0,0,1-.511-0.158,36.564,36.564,0,0,0-7.6,3.878,22.355,22.355,0,0,1,11.59,1.639,1.407,1.407,0,0,1,.737,1.861,1.433,1.433,0,0,1-1.312.845,1.409,1.409,0,0,1-.572-0.119,19.452,19.452,0,0,0-9.567-1.483c0.418,0.53.812,1.059,1.183,1.595,5.128,7.4,6.539,12.752-1.422,18.17-4.062,2.766-8.286,5.472-12.555,8.04l-5.829,3.41C24.462,59.709,15.985,64,7.192,67.952A13.858,13.858,0,0,1,2.818,69a2.807,2.807,0,0,1-2.129-.79c-1.382-1.43-.515-3.828.862-7.059,0.972-2.279,2.309-5.073,3.975-8.3,0.622-1.2,18.5-30.732,19.725-32.576,0.009-.012.017-0.025,0.025-0.037q0.892-1.256,1.772-2.461c4.43-6.047,8.416-5.39,14.667-1.917a28.641,28.641,0,0,1,3.753,2.555,33.649,33.649,0,0,0,2.485-3.75A21.9,21.9,0,0,0,43.5,3.581a1.4,1.4,0,0,1,.274-1.98,1.441,1.441,0,0,1,2,.27,24.906,24.906,0,0,1,4.251,8.493,33.907,33.907,0,0,0,2.215-9.118A1.451,1.451,0,0,1,53.808-.021,1.417,1.417,0,0,1,55.09,1.526a36.546,36.546,0,0,1-6.352,17.242,39.453,39.453,0,0,1,7.884-4,1.351,1.351,0,0,1,.174-0.15c4.808-2.7,4.6-5.926,4.386-9.338-0.025-.4-0.05-0.792-0.067-1.177A1.422,1.422,0,0,1,62.484,2.63a1.438,1.438,0,0,1,1.49,1.351c0.017,0.368.04,0.742,0.064,1.121,0.149,2.342.322,5.255-1.406,7.994a34.4,34.4,0,0,1,5.912-.6,1.487,1.487,0,0,1,1.446,1.4A1.419,1.419,0,0,1,68.576,15.322ZM47.5,24.189l-3.236-3.134a25.985,25.985,0,0,0-3.949-2.729c-5.922-3.291-7.866-3.092-10.945,1.111-0.574.782-1.152,1.587-1.733,2.406-0.242.367-.884,1.4-1.793,2.886a24.374,24.374,0,0,1,9.432,7.255,1.4,1.4,0,0,1-.251,1.982,1.443,1.443,0,0,1-2.007-.249,21.567,21.567,0,0,0-8.67-6.539c-2.911,4.776-7.166,11.808-10.6,17.5a15.533,15.533,0,0,1,5.471,4.356,1.4,1.4,0,0,1-.253,1.982,1.444,1.444,0,0,1-2.008-.249,12.679,12.679,0,0,0-4.68-3.648c-2.355,3.911-4.065,6.766-4.2,7.027-1.632,3.16-2.94,5.892-3.885,8.107a16.579,16.579,0,0,0-1.342,3.931,11.084,11.084,0,0,0,3.259-.841c8.61-3.875,17.006-8.125,24.856-12.589l2.849-1.667A17.63,17.63,0,0,0,28.18,44.44a1.4,1.4,0,0,1-.329-1.972,1.446,1.446,0,0,1,2-.324,20.511,20.511,0,0,1,6.469,7.474l0.444-.26c4.208-2.532,8.386-5.207,12.4-7.945,5.631-3.833,5.777-6.894.685-14.248A30.764,30.764,0,0,0,47.5,24.189Z"/>
</svg>
