<svg xmlns="http://www.w3.org/2000/svg" width="71" height="71" viewBox="0 0 71 71">
  <defs>
    <style>
      .cls-1 {
        fill: #60ba62;
        fill-rule: evenodd;
      }
    </style>
  </defs>
  <path id="diet-icon" class="cls-1" d="M69.492,24.031H57.26l4.831,4.761a1.507,1.507,0,1,1-2.129,2.133L53.654,24.6a2.942,2.942,0,0,1-.857-2.072s0-.006,0-0.009,0-.006,0-0.009a2.938,2.938,0,0,1,.855-2.071l6.31-6.322a1.507,1.507,0,0,1,2.129,2.133L57.34,21.014H69.492A1.509,1.509,0,0,1,69.492,24.031ZM49.445,12.436a1.469,1.469,0,0,1,.119.852c-0.99,5.324-1.614,13.223,4.362,20.316a22.665,22.665,0,0,1,5.293,12.464,1.487,1.487,0,0,1-.168.792,1.483,1.483,0,0,1,.249.734c0.273,7.442-2.146,14.652-3.912,19.915-0.288.856-.559,1.665-0.8,2.421a1.5,1.5,0,1,1-2.866-.921c0.245-.768.521-1.591,0.813-2.461,1.538-4.584,3.592-10.707,3.765-16.959a68.473,68.473,0,0,0-15.533,7.144C37,59.081,37,60.1,37.02,65.02l0,4.45a1.508,1.508,0,0,1-1.505,1.508c-0.007,0-.013,0-0.019,0s-0.013,0-.019,0a1.508,1.508,0,0,1-1.505-1.508l0.008-4.918c0.037-4.381.045-5.422-3.345-7.565a68.9,68.9,0,0,0-15.94-7.4c0.172,6.252,2.227,12.375,3.765,16.96,0.292,0.871.568,1.693,0.813,2.461a1.5,1.5,0,1,1-2.865.921c-0.242-.755-0.514-1.565-0.8-2.421-1.767-5.264-4.185-12.474-3.913-19.915a1.483,1.483,0,0,1,.25-0.735,1.485,1.485,0,0,1-.167-0.791A22.658,22.658,0,0,1,17.072,33.6C23,26.562,22.387,18.883,21.188,12.979A1.479,1.479,0,0,1,21.22,12.3,11.8,11.8,0,0,1,14.15,1.5a1.505,1.505,0,1,1,3.01,0,8.768,8.768,0,0,0,8.749,8.768A8.8,8.8,0,0,0,34.092,4.61a1.566,1.566,0,0,1,2.815,0,8.8,8.8,0,0,0,8.181,5.657A8.769,8.769,0,0,0,53.837,1.5a1.505,1.505,0,1,1,3.01,0A11.8,11.8,0,0,1,49.445,12.436Zm-17.2,42a11.845,11.845,0,0,1,3.3,2.858,12.709,12.709,0,0,1,3.64-3.121,73.106,73.106,0,0,1,6.812-3.718,74.139,74.139,0,0,1-10.548.767,73.633,73.633,0,0,1-10.4-.749A74.138,74.138,0,0,1,32.24,54.435ZM35.5,8.314a11.829,11.829,0,0,1-9.59,4.97,11.717,11.717,0,0,1-1.621-.125c1.136,6.033,1.64,14.608-4.916,22.391a19.815,19.815,0,0,0-4.449,9.592,70.58,70.58,0,0,0,41.152,0,19.834,19.834,0,0,0-4.45-9.588c-6.633-7.873-6.149-16.445-5.1-22.363a11.742,11.742,0,0,1-1.438.1A11.827,11.827,0,0,1,35.5,8.314ZM17.343,24.6l-6.309,6.321a1.507,1.507,0,0,1-2.129-2.133l4.751-4.761H1.506a1.509,1.509,0,0,1,0-3.017h12.23L8.906,16.253a1.507,1.507,0,0,1,2.129-2.133l6.309,6.322A2.951,2.951,0,0,1,17.343,24.6Z"/>
</svg>
