<svg xmlns="http://www.w3.org/2000/svg" width="23" height="23" viewBox="0 0 23 23">
  <defs>
    <style>
      .cls-1 {
        fill: #505050;
        fill-rule: evenodd;
      }
    </style>
  </defs>
  <path id="icon" class="cls-1" d="M11.492,17.38a0.719,0.719,0,1,1-.719.719A0.719,0.719,0,0,1,11.492,17.38ZM11.332,4.808A3.388,3.388,0,0,0,7.68,8.46a0.359,0.359,0,1,0,.719,0,2.67,2.67,0,0,1,2.933-2.933A2.948,2.948,0,0,1,14.585,8.78a3.834,3.834,0,0,1-2.259,3.127c-1.457.68-1.2,3.065-1.191,3.166a0.359,0.359,0,0,0,.357.319l0.041,0a0.359,0.359,0,0,0,.316-0.4c0-.02-0.2-1.977.781-2.433A4.526,4.526,0,0,0,15.3,8.78,3.65,3.65,0,0,0,11.332,4.808ZM11.5,0A11.5,11.5,0,1,0,23,11.5,11.5,11.5,0,0,0,11.5,0Zm0,22.281A10.781,10.781,0,1,1,22.281,11.5,10.793,10.793,0,0,1,11.5,22.281Z"/>
</svg>
