<svg xmlns="http://www.w3.org/2000/svg" width="83" height="73" viewBox="0 0 83 73">
  <defs>
    <style>
      .cls-1 {
        fill: #60ba62;
        fill-rule: evenodd;
      }
    </style>
  </defs>
  <path id="Heart-icon" class="cls-1" d="M82.912,24.159c-1.895,20.834-32.048,42.88-38.073,47.088l-0.9.648a4.385,4.385,0,0,1-2.461,1.118,4.2,4.2,0,0,1-2.416-1.119c-0.3-.225-0.663-0.5-1.129-0.829A157.183,157.183,0,0,1,17.885,54.228a1.86,1.86,0,0,1-.018-2.6,1.775,1.775,0,0,1,2.545-.019A153.6,153.6,0,0,0,39.973,68.041c0.508,0.358.906,0.657,1.229,0.9l0.292,0.224c0.1-.073.212-0.159,0.343-0.255,0.267-.2.584-0.427,0.967-0.694C44.98,66.7,57.533,57.724,67.34,46.494H56.04a1.805,1.805,0,0,1-1.727-1.316L50.984,33.691C48.53,41.611,46.295,47.674,43.41,55.5l-1.035,2.814A1.8,1.8,0,0,1,40.689,59.5H40.672a1.8,1.8,0,0,1-1.68-1.223L34.9,46.494H28.816a1.811,1.811,0,0,1-1.768-1.486L23.716,27.5,20.842,44.961a1.811,1.811,0,0,1-1.775,1.532H1.789a1.837,1.837,0,0,1,0-3.672H17.543l4.268-25.93a1.81,1.81,0,0,1,1.752-1.531h0.023a1.811,1.811,0,0,1,1.768,1.486L30.3,42.821h5.869a1.8,1.8,0,0,1,1.7,1.224l2.873,8.268c3.174-8.621,5.591-15.323,8.548-25.521a1.79,1.79,0,0,1,3.453,0l4.647,16.03H70.374c4.758-6.115,8.378-12.7,8.952-19A16.957,16.957,0,0,0,74.08,9.764a20.086,20.086,0,0,0-14.439-6.1c-12.923,0-14.24,6.259-15.2,10.83-0.367,1.745-.685,3.253-1.648,4.239a1.775,1.775,0,0,1-2.551,0c-0.962-.986-1.279-2.494-1.647-4.239-0.962-4.57-2.279-10.83-15.2-10.83a20.084,20.084,0,0,0-14.438,6.1c-7.015,7.154-7.144,16.051-.391,27.2a1.859,1.859,0,0,1-.586,2.527,1.78,1.78,0,0,1-2.478-.6C-2.05,26.437-1.735,15.467,6.4,7.167A23.636,23.636,0,0,1,23.388-.008c13.326,0,16.769,6.326,18.128,11.192C42.873,6.319,46.316-.008,59.64-0.008A23.639,23.639,0,0,1,76.627,7.167,20.739,20.739,0,0,1,82.912,24.159Z"/>
</svg>
