<?xml version="1.0" encoding="UTF-8" standalone="no"?>
<svg
   xmlns:dc="http://purl.org/dc/elements/1.1/"
   xmlns:cc="http://creativecommons.org/ns#"
   xmlns:rdf="http://www.w3.org/1999/02/22-rdf-syntax-ns#"
   xmlns:svg="http://www.w3.org/2000/svg"
   xmlns="http://www.w3.org/2000/svg"
   viewBox="0 0 1240 297.33334"
   height="297.33334"
   width="1240"
   xml:space="preserve"
   id="svg2"
   version="1.1"><metadata
     id="metadata8"><rdf:RDF><cc:Work
         rdf:about=""><dc:format>image/svg+xml</dc:format><dc:type
           rdf:resource="http://purl.org/dc/dcmitype/StillImage" /></cc:Work></rdf:RDF></metadata><defs
     id="defs6" /><g
     transform="matrix(1.3333333,0,0,-1.3333333,0,297.33333)"
     id="g10"><g
       transform="scale(0.1)"
       id="g12"><path
         id="path14"
         style="fill:#ffffff;fill-opacity:1;fill-rule:nonzero;stroke:none"
         d="M 918.672,1074.24 H 345.199 c -19.73,0 -35.668,-15.98 -35.668,-35.67 0,-19.68 15.938,-35.66 35.668,-35.66 h 573.473 c 19.726,0 35.707,15.98 35.707,35.66 0,19.69 -15.981,35.67 -35.707,35.67" /><path
         id="path16"
         style="fill:#ffffff;fill-opacity:1;fill-rule:nonzero;stroke:none"
         d="m 747.699,833.77 c 0,19.691 -15.98,35.66 -35.668,35.66 H 35.6602 C 15.9805,869.43 0,853.461 0,833.77 0,814.078 15.9805,798.102 35.6602,798.102 H 712.031 c 19.688,0 35.668,15.976 35.668,35.668" /><path
         id="path18"
         style="fill:#ffffff;fill-opacity:1;fill-rule:nonzero;stroke:none"
         d="M 849.961,669.16 H 279.219 c -19.688,0 -35.668,-15.98 -35.668,-35.66 0,-19.691 15.98,-35.672 35.668,-35.672 h 570.742 c 19.687,0 35.66,15.981 35.66,35.672 0,19.68 -15.973,35.66 -35.66,35.66" /><path
         id="path20"
         style="fill:#ffffff;fill-opacity:1;fill-rule:nonzero;stroke:none"
         d="m 203.121,1003.07 c 18.289,0 33.52,15.23 33.52,33.47 0,18.24 -15.231,33.48 -33.52,33.48 -18.242,0 -33.473,-15.24 -33.473,-33.48 0,-18.24 15.231,-33.47 33.473,-33.47" /><path
         id="path22"
         style="fill:#ffffff;fill-opacity:1;fill-rule:nonzero;stroke:none"
         d="m 854.219,867.871 c -18.239,0 -33.481,-15.23 -33.481,-33.48 0,-18.282 15.242,-33.512 33.481,-33.512 18.242,0 33.48,15.23 33.48,33.512 0,18.25 -15.238,33.48 -33.48,33.48" /><path
         id="path24"
         style="fill:#ffffff;fill-opacity:1;fill-rule:nonzero;stroke:none"
         d="m 131.68,665.68 c -18.282,0 -33.5198,-15.231 -33.5198,-33.469 0,-18.25 15.2378,-33.481 33.5198,-33.481 18.242,0 33.48,15.231 33.48,33.481 0,18.238 -15.238,33.469 -33.48,33.469" /><path
         id="path26"
         style="fill:#ffffff;fill-opacity:1;fill-rule:nonzero;stroke:none"
         d="m 3184.84,508.5 c 18.44,-97.191 -45.62,-191.289 -142.85,-209.77 -97.22,-18.441 -191.29,45.661 -209.76,142.848 -18.44,97.231 45.66,191.332 142.85,209.774 97.22,18.429 191.33,-45.633 209.76,-142.852 z M 1995.94,282.91 c 18.44,-97.23 -45.67,-191.2889 -142.89,-209.7694 -97.19,-18.4297 -191.29,45.6684 -209.73,142.8904 -18.44,97.188 45.63,191.289 142.85,209.731 97.23,18.437 191.29,-45.621 209.77,-142.852 z M 3385.9,871.82 1323.16,480.449 c -31.28,-5.937 -51.91,-36.211 -45.97,-67.5 5.93,-31.289 36.21,-51.918 67.5,-45.98 l 313.83,59.531 c -59.38,-54.219 -90.2,-137.031 -74.14,-221.68 24.6,-129.7184 150.15,-215.1911 279.88,-190.5817 129.69,24.6133 215.19,150.1527 190.58,279.8827 -16.05,84.609 -75.07,150.391 -150.19,179.098 l 942.81,178.871 c -59.37,-54.18 -90.23,-137.031 -74.14,-221.68 24.61,-129.691 150.16,-215.199 279.84,-190.59 129.73,24.61 215.24,150.16 190.63,279.852 -16.06,84.648 -75.08,150.43 -150.2,179.137 l 313.83,59.531 c 31.29,5.941 51.92,36.211 45.98,67.5 -5.94,31.289 -36.21,51.91 -67.5,45.98" /><path
         id="path28"
         style="fill:#ffffff;fill-opacity:1;fill-rule:nonzero;stroke:none"
         d="m 2110.86,1955.18 c 35.19,6.71 69.26,-16.49 75.94,-51.68 6.68,-35.24 -16.53,-69.3 -51.72,-75.98 -35.2,-6.68 -69.3,16.52 -75.94,51.72 -6.72,35.19 16.48,69.29 51.72,75.94 z M 1295.23,591.07 c 16.29,3.09 26.96,18.75 23.87,35.039 -94.88,500.201 279.92,992.931 835.51,1098.361 555.62,105.39 1084.88,-215.78 1179.77,-715.97 3.08,-16.289 18.78,-26.961 35.07,-23.871 16.25,3.082 26.96,18.751 23.87,35.041 -24.8,130.78 -77.23,252.3 -155.82,361.09 -75.74,104.88 -172.46,193.56 -287.46,263.59 -114.77,69.89 -241.95,117.7 -378.05,142.08 -122.42,21.95 -247.46,24.02 -372.46,6.25 35.82,27.89 55.24,74.37 46.21,121.99 -12.85,67.69 -78.4,112.3 -146.09,99.45 -67.7,-12.81 -112.31,-78.36 -99.45,-146.05 9.02,-47.58 44.1,-83.75 87.65,-96.57 -122.81,-29.25 -238.4,-76.99 -344.26,-142.26 -117.73,-72.54 -218.55,-163.6 -299.72,-270.67 -81.37,-107.3 -138.87,-225.23 -170.94,-350.58 -33.28,-130.002 -37.54,-262.271 -12.73,-393.049 3.08,-16.293 18.78,-26.992 35.03,-23.871" /><path
         id="path30"
         style="fill:#ffffff;fill-opacity:1;fill-rule:nonzero;stroke:none"
         d="m 3116.09,1076.43 c -10.43,60.78 -32.26,114.41 -67.85,167.1 -47.85,70.82 -121.25,140.2 -224.41,212.04 -42.5,29.64 -82.81,54.33 -119.81,74.88 48.79,-15.04 102.39,-36.21 155.63,-65.98 154.96,-86.6 251.6,-214.84 287.46,-381.44 -11.56,-2.85 -22.46,-5.2 -31.02,-6.6 z m -29.61,275.35 c -51.79,65.23 -118.32,120.74 -197.57,165.07 -158.44,88.52 -319.89,106.18 -365.59,109.5 -5.78,0.43 -10.94,0.82 -15.51,1.13 -9.88,0.74 -16.99,1.29 -22.07,1.52 -3.51,0.16 -6.09,0.16 -8.32,0.04 -18.16,-1.05 -27.22,-13.71 -29.45,-24.26 -2.15,-10.27 0.78,-25.23 16.21,-33.55 1.84,-0.98 3.91,-1.91 6.68,-3.01 3.63,-1.44 8.32,-3.08 14.76,-5.39 44.03,-15.55 160.9,-56.83 303.91,-156.48 218.4,-152.11 259.26,-267.7 270.43,-360.75 1.17,-9.76 6.64,-18.51 15.04,-24.02 11.84,-7.81 27.73,-8.83 57.81,-3.12 4.73,0.89 9.77,1.95 15.24,3.16 21.75,4.92 41.6,10.78 42.42,11.02 15.86,4.72 24.92,21.4 20.23,37.3 -0.27,0.9 -0.62,1.8 -0.93,2.66 0,1.95 -0.16,3.9 -0.55,5.9 -19.65,103.63 -60.94,195.58 -122.74,273.28" /><path
         id="path32"
         style="fill:#ffffff;fill-opacity:1;fill-rule:nonzero;stroke:none"
         d="m 4038.83,1672.64 h 70.78 c 1.01,-9.07 1.76,-20.86 2.27,-35.43 0.5,-14.57 1.24,-29.61 2.26,-45.2 0.98,-15.58 1.76,-30.12 2.27,-43.67 0.5,-13.56 0.74,-23.87 0.74,-30.9 22.11,50.24 53.47,90.63 94.18,121.29 40.66,30.62 91.13,46.45 151.4,47.46 56.22,0 101.41,-14.84 135.59,-44.45 34.1,-29.65 54.22,-68.56 60.23,-116.76 23.09,48.2 54.5,86.87 94.18,116.02 39.65,29.1 89.11,44.18 148.36,45.19 60.28,0 107.74,-16.56 142.39,-49.73 34.64,-33.12 52.97,-76.83 55,-131.05 v -435.39 h -82.89 v 406.76 c -2,34.14 -14.07,63.28 -36.14,87.38 -22.11,24.1 -55.27,37.15 -99.41,39.18 -31.17,0 -60.04,-5.27 -86.64,-15.82 -26.64,-10.55 -49.73,-25.12 -69.3,-43.71 -19.57,-18.6 -34.92,-40.67 -45.94,-66.29 -11.09,-25.59 -17.11,-53.48 -18.08,-83.59 v -323.91 h -82.85 v 406.76 c -2.03,34.14 -14.11,63.28 -36.18,87.38 -22.1,24.1 -54.76,37.15 -97.93,39.18 -32.14,0 -61.52,-5.27 -88.12,-15.82 -26.64,-10.55 -49.96,-25.39 -70.04,-44.45 -20.12,-19.11 -35.66,-41.68 -46.72,-67.82 -11.05,-26.09 -16.56,-54.72 -16.56,-85.86 v -319.37 h -82.85 v 602.62" /><path
         id="path34"
         style="fill:#ffffff;fill-opacity:1;fill-rule:nonzero;stroke:none"
         d="m 5311.8,1372.83 c 0,-33.12 6.01,-63.79 18.08,-91.91 12.03,-28.13 28.64,-52.74 49.73,-73.79 21.05,-21.1 45.94,-37.66 74.53,-49.73 28.63,-12.07 59.53,-18.08 92.66,-18.08 33.16,0 64.06,6.01 92.65,18.08 28.64,12.07 53.48,28.63 74.57,49.73 21.1,21.05 37.66,45.66 49.73,73.79 12.07,28.12 18.05,58.79 18.05,91.91 0,32.11 -5.98,62.27 -18.05,90.39 -12.07,28.13 -28.63,52.74 -49.73,73.83 -21.09,21.09 -45.93,37.66 -74.57,49.69 -28.59,12.07 -59.49,18.08 -92.65,18.08 -33.13,0 -64.03,-6.01 -92.66,-18.08 -28.59,-12.03 -53.48,-28.36 -74.53,-48.95 -21.09,-20.58 -37.7,-44.96 -49.73,-73.04 -12.07,-28.17 -18.08,-58.79 -18.08,-91.92 z m -82.85,-4.53 c 0,43.16 8.28,84.1 24.84,122.81 16.6,38.64 39.18,72.54 67.77,101.68 28.64,29.1 62.03,51.96 100.2,68.52 38.16,16.6 78.83,24.88 122.03,24.88 30.12,0 58.24,-4.02 84.37,-12.07 26.1,-8.05 49.46,-18.83 70.04,-32.38 20.59,-13.56 37.89,-28.64 51.96,-45.2 14.06,-16.56 24.61,-32.89 31.64,-48.94 l 6.05,125.04 h 76.84 v -602.62 h -82.89 v 61.76 c 0,11.05 0.27,21.6 0.78,31.64 0.47,10.04 0.74,19.61 0.74,28.63 -7.03,-17.07 -17.58,-33.4 -31.64,-48.95 -14.06,-15.58 -31.41,-29.92 -51.95,-42.96 -20.63,-13.05 -43.95,-23.32 -70.08,-30.86 -26.1,-7.54 -54.73,-11.29 -85.86,-11.29 -45.2,0 -87.11,8.28 -125.78,24.84 -38.67,16.56 -71.84,38.91 -99.46,67.03 -27.61,28.13 -49.45,61.02 -65.5,98.67 -16.1,37.66 -24.1,77.58 -24.1,119.77" /><path
         id="path36"
         style="fill:#ffffff;fill-opacity:1;fill-rule:nonzero;stroke:none"
         d="m 6187.07,1372.83 c 0,-33.12 6.02,-63.79 18.09,-91.91 12.03,-28.13 28.59,-52.74 49.68,-73.79 21.1,-21.1 45.98,-37.66 74.57,-49.73 28.64,-12.07 59.54,-18.08 92.66,-18.08 33.16,0 64.02,6.01 92.66,18.08 28.63,12.07 53.47,28.63 74.57,49.73 21.09,21.05 37.65,45.66 49.72,73.79 12.03,28.12 18.09,58.79 18.09,91.91 0,32.11 -6.06,62.27 -18.09,90.39 -12.07,28.13 -28.63,52.74 -49.72,73.83 -21.1,21.09 -45.94,37.66 -74.57,49.69 -28.64,12.07 -59.5,18.08 -92.66,18.08 -33.12,0 -64.02,-6.01 -92.66,-18.08 -28.59,-12.03 -53.47,-28.36 -74.57,-48.95 -21.09,-20.58 -37.65,-44.96 -49.68,-73.04 -12.07,-28.17 -18.09,-58.79 -18.09,-91.92 z m -82.85,-1.48 c 0,45.15 8.01,87.11 24.1,125.78 16.06,38.63 37.89,71.8 65.51,99.41 27.62,27.62 60.27,49.46 97.93,65.55 37.65,16.05 78.59,24.1 122.77,24.1 31.13,0 59.77,-4.02 85.9,-12.07 26.09,-8.05 49.45,-18.59 70.04,-31.64 20.58,-13.05 38.16,-28.13 52.73,-45.2 14.53,-17.07 25.82,-34.14 33.91,-51.21 V 2224 h 82.85 V 1070.02 h -82.85 v 61.76 c 0,11.05 0.47,21.87 1.48,32.38 0.98,10.55 1.53,20.86 1.53,30.9 -20.12,-37.15 -51.21,-69.3 -93.4,-96.41 -42.19,-27.11 -93.44,-40.66 -153.67,-40.66 -46.21,0 -88.13,8.28 -125.82,24.84 -37.66,16.56 -70.04,38.91 -97.15,67.03 -27.11,28.13 -48.2,61.25 -63.28,99.42 -15.04,38.16 -22.58,78.86 -22.58,122.07" /><path
         id="path38"
         style="fill:#ffffff;fill-opacity:1;fill-rule:nonzero;stroke:none"
         d="m 7060.82,1372.83 c 0,-33.12 6.06,-63.79 18.09,-91.91 12.03,-28.13 28.59,-52.74 49.68,-73.79 21.1,-21.1 45.98,-37.66 74.61,-49.73 28.6,-12.07 59.5,-18.08 92.62,-18.08 33.16,0 64.02,6.01 92.66,18.08 28.63,12.07 53.47,28.63 74.57,49.73 21.09,21.05 37.65,45.66 49.72,73.79 12.07,28.12 18.05,58.79 18.05,91.91 0,32.11 -5.98,62.27 -18.05,90.39 -12.07,28.13 -28.63,52.74 -49.72,73.83 -21.1,21.09 -45.94,37.66 -74.57,49.69 -28.64,12.07 -59.5,18.08 -92.66,18.08 -33.12,0 -64.02,-6.01 -92.62,-18.08 -28.63,-12.03 -53.51,-28.36 -74.61,-48.95 -21.09,-20.58 -37.65,-44.96 -49.68,-73.04 -12.03,-28.17 -18.09,-58.79 -18.09,-91.92 z m -82.85,-4.53 c 0,43.16 8.28,84.1 24.84,122.81 16.6,38.64 39.18,72.54 67.81,101.68 28.6,29.1 62,51.96 100.16,68.52 38.17,16.6 78.87,24.88 122.03,24.88 30.16,0 58.24,-4.02 84.38,-12.07 26.09,-8.05 49.45,-18.83 70.04,-32.38 20.58,-13.56 37.93,-28.64 51.99,-45.2 14.06,-16.56 24.61,-32.89 31.6,-48.94 l 6.02,125.04 h 76.87 v -602.62 h -82.89 v 61.76 c 0,11.05 0.31,21.6 0.78,31.64 0.47,10.04 0.74,19.61 0.74,28.63 -7.03,-17.07 -17.57,-33.4 -31.64,-48.95 -14.06,-15.58 -31.4,-29.92 -51.95,-42.96 -20.59,-13.05 -43.95,-23.32 -70.08,-30.86 -26.09,-7.54 -54.72,-11.29 -85.86,-11.29 -45.19,0 -87.15,8.28 -125.78,24.84 -38.67,16.56 -71.8,38.91 -99.41,67.03 -27.66,28.13 -49.5,61.02 -65.55,98.67 -16.05,37.66 -24.1,77.58 -24.1,119.77" /><path
         id="path40"
         style="fill:#ffffff;fill-opacity:1;fill-rule:nonzero;stroke:none"
         d="m 7896.91,1672.64 h 70.79 l 7.61,-155.2 c 22.03,50.24 54.65,90.9 97.85,122.03 43.13,31.13 94.89,46.72 155.16,46.72 59.26,0 106.25,-16.56 140.94,-49.73 34.57,-33.12 52.97,-76.83 54.92,-131.05 v -435.39 h -82.89 v 406.76 c -1.95,34.14 -14.06,63.28 -36.09,87.38 -22.11,24.1 -55.32,37.15 -99.46,39.18 -32.15,0 -61.79,-5.27 -88.86,-15.82 -27.11,-10.55 -51.02,-25.39 -71.53,-44.45 -20.62,-19.11 -36.68,-41.68 -48.2,-67.82 -11.64,-26.09 -17.35,-54.72 -17.35,-85.86 v -319.37 h -82.89 v 602.62" /><path
         id="path42"
         style="fill:#ffffff;fill-opacity:1;fill-rule:nonzero;stroke:none"
         d="m 8738.98,1372.83 c 0,-33.12 6.1,-63.79 18.09,-91.91 12.11,-28.13 28.71,-52.74 49.81,-73.79 21.09,-21.1 45.93,-37.66 74.53,-49.73 28.59,-12.07 59.53,-18.08 92.61,-18.08 33.21,0 64.03,6.01 92.74,18.08 28.59,12.07 53.44,28.63 74.53,49.73 21.09,21.05 37.66,45.66 49.69,73.79 12.07,28.12 18.08,58.79 18.08,91.91 0,32.11 -6.01,62.27 -18.08,90.39 -12.03,28.13 -28.6,52.74 -49.69,73.83 -21.09,21.09 -45.94,37.66 -74.53,49.69 -28.71,12.07 -59.53,18.08 -92.74,18.08 -33.08,0 -64.02,-6.01 -92.61,-18.08 -28.6,-12.03 -53.44,-28.36 -74.53,-48.95 -21.1,-20.58 -37.7,-44.96 -49.81,-73.04 -11.99,-28.17 -18.09,-58.79 -18.09,-91.92 z m -82.77,-3.01 c 0,45.2 7.97,86.84 24.1,125.04 16.02,38.17 38.17,71.57 66.29,100.16 28.13,28.63 61.02,50.98 98.6,67.07 37.69,16.05 77.65,24.1 119.84,24.1 33.08,0 63.28,-4.53 90.35,-13.55 27.11,-9.07 51.02,-20.36 71.52,-33.91 20.63,-13.55 37.97,-28.4 52.04,-44.45 14.06,-16.06 24.1,-31.64 30.11,-46.68 0,20.08 0.74,40.66 2.23,61.75 1.52,21.1 2.81,42.19 3.75,63.29 h 76.87 v -592.07 c 0,-43.17 -6.56,-83.09 -19.57,-119.769 -13.04,-36.641 -32.61,-68.281 -58.79,-94.922 -26.05,-26.559 -59.25,-47.418 -99.37,-62.5 -40.23,-15.078 -87.38,-22.617 -141.64,-22.617 -57.19,0 -107.19,10.547 -149.92,31.636 -42.66,21.102 -86.06,52.231 -130.32,93.442 l 54.3,57.23 c 39.18,-38.172 76.56,-64.769 112.19,-79.851 35.62,-15.078 72.58,-22.617 110.74,-22.617 42.19,0 78.09,5.277 107.7,15.828 29.65,10.539 54.02,25.148 73.04,43.711 19.14,18.589 33.21,41.168 42.19,67.769 9.1,26.64 14.06,56.02 15.08,88.12 0,8.05 0,15.08 0,21.1 0,6.05 0.47,17.58 1.52,34.65 0,3.04 0.28,7.77 0.74,14.33 0.47,6.53 0.75,13.56 0.75,21.1 0,7.5 0.27,14.53 0.74,21.09 0.59,6.52 0.78,10.78 0.78,12.81 -19.06,-38.2 -49.53,-71.6 -91.13,-100.19 -41.72,-28.64 -93.21,-42.93 -154.42,-42.93 -44.25,0 -85.11,8.04 -122.81,24.1 -37.58,16.05 -70.51,38.12 -98.63,66.29 -28.13,28.08 -49.96,61.01 -65.51,98.67 -15.59,37.66 -23.36,78.55 -23.36,122.77" /><path
         id="path44"
         style="fill:#ffffff;fill-opacity:1;fill-rule:nonzero;stroke:none"
         d="m 4042.42,718.102 h 23.87 V 517.281 c 5.78,13.289 14.65,24.219 26.68,32.739 11.99,8.511 26.64,12.929 44.02,13.242 17.35,0 31.06,-4.762 41.21,-14.332 10.12,-9.539 15.47,-22.11 16.06,-37.739 V 385.84 h -23.87 v 117.109 c -0.59,9.84 -4.06,18.242 -10.43,25.153 -6.37,6.957 -15.9,10.707 -28.63,11.289 -9.26,0 -17.78,-1.52 -25.59,-4.532 -7.81,-3.039 -14.69,-7.3 -20.58,-12.808 -5.94,-5.512 -10.59,-11.992 -13.91,-19.531 -3.32,-7.5 -4.96,-15.739 -4.96,-24.731 V 385.84 h -23.87 v 332.262" /><path
         id="path46"
         style="fill:#ffffff;fill-opacity:1;fill-rule:nonzero;stroke:none"
         d="m 4430.2,508.18 c -4.89,9.808 -11.84,17.539 -20.79,23.172 -8.98,5.66 -18.94,8.468 -29.96,8.468 -9.25,0 -17.93,-1.789 -26.01,-5.429 -8.09,-3.59 -15.2,-8.43 -21.25,-14.532 -6.1,-6.05 -10.86,-13.078 -14.34,-21.007 -3.47,-7.973 -5.19,-16.411 -5.19,-25.391 0,-4.652 0.43,-8.68 1.29,-12.152 8.98,3.75 18.51,7.652 28.63,11.722 10.15,4.059 20.27,8.16 30.39,12.379 10.12,4.18 20.08,8.238 29.92,12.149 9.84,3.902 18.95,7.421 27.31,10.621 z m 14.76,-101.52 c -8.4,-7.5 -18.2,-13.441 -29.49,-17.769 -11.29,-4.34 -23.01,-6.532 -35.12,-6.532 -12.73,0 -24.69,2.391 -35.82,7.153 -11.13,4.769 -20.82,11.207 -29.06,19.297 -8.24,8.121 -14.73,17.652 -19.49,28.671 -4.81,10.981 -7.19,22.7 -7.19,35.122 0,12.418 2.38,24.218 7.19,35.347 4.76,11.129 11.25,20.821 19.49,29.063 8.24,8.238 17.85,14.769 28.87,19.527 10.97,4.77 22.69,7.152 35.11,7.152 19.1,0 35.67,-5.781 49.69,-17.339 14.02,-11.571 24.34,-26.332 31.02,-44.262 -9.85,-3.75 -20.78,-8.012 -32.78,-12.77 -11.99,-4.808 -24.26,-9.73 -36.83,-14.769 -12.62,-5.082 -25.12,-10.121 -37.54,-15.16 -12.42,-5.071 -24.03,-9.801 -34.69,-14.141 5.2,-11.828 13.2,-21.398 24.06,-28.629 10.82,-7.23 23.21,-10.82 37.07,-10.82 9.26,0 18.09,1.558 26.49,4.769 8.36,3.16 15.47,7.5 21.25,13 l 17.77,-16.91" /><path
         id="path48"
         style="fill:#ffffff;fill-opacity:1;fill-rule:nonzero;stroke:none"
         d="m 4560.35,473.031 c 0,-9.531 1.76,-18.359 5.2,-26.453 3.47,-8.117 8.24,-15.187 14.33,-21.25 6.06,-6.09 13.21,-10.859 21.45,-14.328 8.24,-3.48 17.15,-5.199 26.68,-5.199 9.57,0 18.44,1.719 26.68,5.199 8.24,3.469 15.43,8.238 21.48,14.328 6.1,6.063 10.86,13.133 14.34,21.25 3.44,8.094 5.19,16.922 5.19,26.453 0,9.25 -1.75,17.93 -5.19,26.008 -3.48,8.133 -8.24,15.199 -14.34,21.289 -6.05,6.063 -13.24,10.82 -21.48,14.301 -8.24,3.473 -17.11,5.191 -26.68,5.191 -9.53,0 -18.44,-1.718 -26.68,-5.191 -8.24,-3.481 -15.39,-8.168 -21.45,-14.098 -6.09,-5.941 -10.86,-12.929 -14.33,-21.062 -3.44,-8.078 -5.2,-16.91 -5.2,-26.438 z m -23.87,-1.293 c 0,12.422 2.39,24.223 7.15,35.352 4.81,11.129 11.29,20.898 19.53,29.262 8.25,8.398 17.86,14.957 28.87,19.757 10.98,4.77 22.7,7.153 35.12,7.153 8.67,0 16.76,-1.172 24.3,-3.481 7.5,-2.301 14.25,-5.429 20.15,-9.332 5.94,-3.91 10.94,-8.238 14.96,-13.008 4.06,-4.761 7.11,-9.453 9.14,-14.101 l 1.72,36.012 h 22.15 V 385.84 h -23.87 v 17.769 c 0,3.211 0.08,6.211 0.2,9.141 0.15,2.852 0.23,5.629 0.23,8.211 -2.03,-4.93 -5.08,-9.609 -9.1,-14.07 -4.06,-4.493 -9.06,-8.629 -15,-12.379 -5.9,-3.75 -12.62,-6.723 -20.15,-8.91 -7.5,-2.141 -15.75,-3.243 -24.73,-3.243 -13.01,0 -25.08,2.391 -36.21,7.153 -11.14,4.769 -20.67,11.207 -28.64,19.297 -7.96,8.121 -14.25,17.582 -18.86,28.441 -4.65,10.82 -6.96,22.34 -6.96,34.488" /><path
         id="path50"
         style="fill:#ffffff;fill-opacity:1;fill-rule:nonzero;stroke:none"
         d="m 4829.73,385.828 h 23.8711 V 718.101 H 4829.73 Z" /><path
         id="path52"
         style="fill:#ffffff;fill-opacity:1;fill-rule:nonzero;stroke:none"
         d="m 4976.8,635.25 h 23.82 v -77.648 h 51.65 v -21.68 h -51.65 V 385.84 h -23.82 v 150.082 h -34.73 v 21.68 h 34.73 v 77.648" /><path
         id="path54"
         style="fill:#ffffff;fill-opacity:1;fill-rule:nonzero;stroke:none"
         d="m 5137.27,718.102 h 23.86 V 517.281 c 5.78,13.289 14.69,24.219 26.68,32.739 11.99,8.511 26.68,12.929 44.03,13.242 17.38,0 31.09,-4.762 41.21,-14.332 10.11,-9.539 15.47,-22.11 16.05,-37.739 V 385.84 h -23.87 v 117.109 c -0.58,9.84 -4.02,18.242 -10.39,25.153 -6.36,6.957 -15.89,10.707 -28.63,11.289 -9.26,0 -17.77,-1.52 -25.59,-4.532 -7.81,-3.039 -14.68,-7.3 -20.62,-12.808 -5.94,-5.512 -10.55,-11.992 -13.87,-19.531 -3.32,-7.5 -5,-15.739 -5,-24.731 V 385.84 h -23.86 v 332.262" /><path
         id="path56"
         style="fill:#ffffff;fill-opacity:1;fill-rule:nonzero;stroke:none"
         d="m 5433.98,302.559 h -25.15 c 3.75,7.812 7.15,15.121 10.19,21.91 3.05,6.801 6.02,13.633 8.91,20.59 2.89,6.953 5.98,14.261 9.34,21.91 3.32,7.66 7.14,16.25 11.48,25.82 -13.32,26.602 -26.33,54.262 -39.06,83.051 -12.74,28.789 -25.71,56.601 -39.03,83.512 h 25.59 c 8.67,-17.34 16.21,-32.961 22.58,-46.832 6.33,-13.911 12.07,-26.559 17.11,-37.969 5.08,-11.41 9.61,-22.071 13.67,-31.871 4.06,-9.852 8.09,-19.379 12.15,-28.641 4.06,9.262 8.01,18.789 11.91,28.641 3.91,9.8 8.4,20.461 13.48,31.871 5.04,11.41 10.74,24.058 17.11,37.969 6.36,13.871 13.9,29.492 22.58,46.832 h 25.58 L 5433.98,302.559" /><path
         id="path58"
         style="fill:#ffffff;fill-opacity:1;fill-rule:nonzero;stroke:none"
         d="m 5767.58,535.488 v 23.442 h 29.92 v 51.172 c 0,35.269 8.48,61.828 25.39,79.609 16.91,17.769 39.38,27.258 67.42,28.391 v -22.961 c -21.36,-0.59 -38.24,-8.321 -50.51,-23.211 -12.3,-14.918 -18.43,-35.5 -18.43,-61.828 V 558.93 h 56.83 v -23.442 h -56.83 V 385.84 h -23.87 v 149.648 h -29.92" /><path
         id="path60"
         style="fill:#ffffff;fill-opacity:1;fill-rule:nonzero;stroke:none"
         d="m 5968.83,472.602 c 0,-9.262 1.76,-17.93 5.23,-26.024 3.48,-8.117 8.24,-15.187 14.3,-21.25 6.09,-6.09 13.16,-10.859 21.25,-14.328 8.12,-3.48 16.8,-5.199 26.05,-5.199 9.26,0 18.01,1.719 26.22,5.199 8.24,3.469 15.42,8.238 21.48,14.328 6.09,6.063 10.86,13.133 14.34,21.25 3.47,8.094 5.19,16.762 5.19,26.024 0,9.25 -1.72,18 -5.19,26.25 -3.48,8.238 -8.25,15.386 -14.34,21.476 -6.06,6.063 -13.24,10.82 -21.48,14.301 -8.21,3.473 -16.96,5.191 -26.22,5.191 -9.25,0 -17.93,-1.718 -26.05,-5.191 -8.09,-3.481 -15.16,-8.238 -21.25,-14.301 -6.06,-6.09 -10.82,-13.238 -14.3,-21.476 -3.47,-8.25 -5.23,-17 -5.23,-26.25 z m -23.83,0 c 0,12.418 2.38,24.218 7.15,35.347 4.76,11.129 11.29,20.821 19.53,29.063 8.24,8.238 17.93,14.769 29.06,19.527 11.14,4.77 23.05,7.152 35.78,7.152 12.74,0 24.65,-2.382 35.78,-7.152 11.14,-4.758 20.75,-11.289 28.87,-19.527 8.09,-8.242 14.45,-17.934 19.06,-29.063 4.65,-11.129 6.96,-22.929 6.96,-35.347 0,-12.422 -2.31,-24.141 -6.96,-35.122 -4.61,-11.019 -11.05,-20.55 -19.29,-28.671 -8.24,-8.09 -17.85,-14.528 -28.83,-19.297 -11.02,-4.762 -23.01,-7.153 -36.02,-7.153 -12.73,0 -24.61,2.27 -35.58,6.719 -10.98,4.492 -20.59,10.781 -28.83,18.871 -8.24,8.082 -14.77,17.653 -19.53,28.629 -4.77,11.024 -7.15,23.012 -7.15,36.024" /><path
         id="path62"
         style="fill:#ffffff;fill-opacity:1;fill-rule:nonzero;stroke:none"
         d="m 6234.77,472.602 c 0,-9.262 1.71,-17.93 5.19,-26.024 3.48,-8.117 8.24,-15.187 14.34,-21.25 6.05,-6.09 13.12,-10.859 21.25,-14.328 8.08,-3.48 16.75,-5.199 26.01,-5.199 9.26,0 18.01,1.719 26.25,5.199 8.24,3.469 15.39,8.238 21.49,14.328 6.05,6.063 10.82,13.133 14.29,21.25 3.48,8.094 5.2,16.762 5.2,26.024 0,9.25 -1.72,18 -5.2,26.25 -3.47,8.238 -8.24,15.386 -14.29,21.476 -6.1,6.063 -13.25,10.82 -21.49,14.301 -8.24,3.473 -16.99,5.191 -26.25,5.191 -9.26,0 -17.93,-1.718 -26.01,-5.191 -8.13,-3.481 -15.2,-8.238 -21.25,-14.301 -6.1,-6.09 -10.86,-13.238 -14.34,-21.476 -3.48,-8.25 -5.19,-17 -5.19,-26.25 z m -23.87,0 c 0,12.418 2.38,24.218 7.15,35.347 4.76,11.129 11.29,20.821 19.53,29.063 8.24,8.238 17.93,14.769 29.06,19.527 11.13,4.77 23.05,7.152 35.78,7.152 12.74,0 24.65,-2.382 35.78,-7.152 11.14,-4.758 20.78,-11.289 28.87,-19.527 8.09,-8.242 14.45,-17.934 19.06,-29.063 4.65,-11.129 6.96,-22.929 6.96,-35.347 0,-12.422 -2.31,-24.141 -6.96,-35.122 -4.61,-11.019 -11.05,-20.55 -19.29,-28.671 -8.25,-8.09 -17.86,-14.528 -28.83,-19.297 -10.98,-4.762 -23.01,-7.153 -36.02,-7.153 -12.73,0 -24.57,2.27 -35.54,6.719 -11.02,4.492 -20.63,10.781 -28.87,18.871 -8.24,8.082 -14.77,17.653 -19.53,28.629 -4.77,11.024 -7.15,23.012 -7.15,36.024" /><path
         id="path64"
         style="fill:#ffffff;fill-opacity:1;fill-rule:nonzero;stroke:none"
         d="m 6501.09,473.031 c 0,-9.531 1.72,-18.359 5.2,-26.453 3.48,-8.117 8.24,-15.187 14.33,-21.25 6.06,-6.09 13.21,-10.859 21.49,-14.328 8.2,-3.48 17.11,-5.199 26.68,-5.199 9.53,0 18.4,1.719 26.64,5.199 8.24,3.469 15.43,8.238 21.48,14.328 6.1,6.063 10.86,13.133 14.3,21.25 3.48,8.094 5.24,16.922 5.24,26.453 0,9.25 -1.76,17.93 -5.24,26.008 -3.44,8.133 -8.2,15.199 -14.3,21.289 -6.05,6.063 -13.24,10.82 -21.48,14.301 -8.24,3.473 -17.11,5.191 -26.64,5.191 -9.57,0 -18.48,-1.718 -26.68,-5.191 -8.28,-3.481 -15.43,-8.168 -21.49,-14.098 -6.09,-5.941 -10.85,-12.929 -14.33,-21.062 -3.48,-8.078 -5.2,-16.91 -5.2,-26.438 z m -23.86,-0.429 c 0,13 2.3,25.078 6.95,36.207 4.61,11.132 10.9,20.66 18.87,28.632 7.97,7.969 17.34,14.258 28.2,18.868 10.86,4.652 22.62,6.953 35.35,6.953 8.95,0 17.19,-1.172 24.73,-3.481 7.5,-2.301 14.22,-5.351 20.15,-9.101 5.94,-3.789 11.02,-8.078 15.2,-13 4.18,-4.93 7.42,-9.852 9.77,-14.77 v 195.192 h 23.82 V 385.84 h -23.82 v 17.769 c 0,3.211 0.11,6.289 0.43,9.34 0.27,3.051 0.42,6.012 0.42,8.903 -5.78,-10.704 -14.76,-19.961 -26.91,-27.774 -12.15,-7.808 -26.87,-11.719 -44.22,-11.719 -13.32,0 -25.39,2.391 -36.25,7.153 -10.82,4.769 -20.15,11.207 -27.97,19.297 -7.81,8.121 -13.86,17.652 -18.2,28.671 -4.34,10.981 -6.52,22.7 -6.52,35.122" /><path
         id="path66"
         style="fill:#ffffff;fill-opacity:1;fill-rule:nonzero;stroke:none"
         d="m 6937.93,473.031 c 0,-9.531 1.72,-18.359 5.19,-26.453 3.48,-8.117 8.25,-15.187 14.3,-21.25 6.1,-6.09 13.24,-10.859 21.49,-14.328 8.24,-3.48 17.14,-5.199 26.68,-5.199 9.53,0 18.43,1.719 26.68,5.199 8.24,3.469 15.39,8.238 21.48,14.328 6.05,6.063 10.82,13.133 14.3,21.25 3.47,8.094 5.19,16.922 5.19,26.453 0,9.25 -1.72,17.93 -5.19,26.008 -3.48,8.133 -8.25,15.199 -14.3,21.289 -6.09,6.063 -13.24,10.82 -21.48,14.301 -8.25,3.473 -17.15,5.191 -26.68,5.191 -9.54,0 -18.44,-1.718 -26.68,-5.191 -8.25,-3.481 -15.39,-8.168 -21.49,-14.098 -6.05,-5.941 -10.82,-12.929 -14.3,-21.062 -3.47,-8.078 -5.19,-16.91 -5.19,-26.438 z m -23.87,-0.429 c 0,13 2.31,25.078 6.92,36.207 4.64,11.132 10.93,20.66 18.86,28.632 7.97,7.969 17.39,14.258 28.21,18.868 10.86,4.652 22.65,6.953 35.35,6.953 8.98,0 17.22,-1.172 24.76,-3.481 7.5,-2.301 14.22,-5.351 20.16,-9.101 5.9,-3.789 10.98,-8.078 15.16,-13 4.22,-4.93 7.46,-9.852 9.76,-14.77 v 195.192 h 23.87 V 385.84 h -23.87 v 17.769 c 0,3.211 0.16,6.289 0.43,9.34 0.28,3.051 0.47,6.012 0.47,8.903 -5.82,-10.704 -14.76,-19.961 -26.91,-27.774 -12.15,-7.808 -26.88,-11.719 -44.26,-11.719 -13.28,0 -25.39,2.391 -36.21,7.153 -10.82,4.769 -20.16,11.207 -27.97,19.297 -7.81,8.121 -13.91,17.652 -18.24,28.671 -4.34,10.981 -6.49,22.7 -6.49,35.122" /><path
         id="path68"
         style="fill:#ffffff;fill-opacity:1;fill-rule:nonzero;stroke:none"
         d="m 7335.23,508.18 c -4.92,9.808 -11.83,17.539 -20.82,23.172 -8.94,5.66 -18.94,8.468 -29.92,8.468 -9.26,0 -17.93,-1.789 -26.01,-5.429 -8.09,-3.59 -15.2,-8.43 -21.25,-14.532 -6.06,-6.05 -10.86,-13.078 -14.34,-21.007 -3.44,-7.973 -5.19,-16.411 -5.19,-25.391 0,-4.652 0.42,-8.68 1.28,-12.152 8.99,3.75 18.52,7.652 28.64,11.722 10.11,4.059 20.27,8.16 30.39,12.379 10.11,4.18 20.08,8.238 29.92,12.149 9.8,3.902 18.95,7.421 27.3,10.621 z M 7350,406.66 c -8.4,-7.5 -18.2,-13.441 -29.49,-17.769 -11.29,-4.34 -23.01,-6.532 -35.16,-6.532 -12.69,0 -24.65,2.391 -35.78,7.153 -11.13,4.769 -20.82,11.207 -29.06,19.297 -8.24,8.121 -14.73,17.652 -19.49,28.671 -4.81,10.981 -7.19,22.7 -7.19,35.122 0,12.418 2.38,24.218 7.19,35.347 4.76,11.129 11.25,20.821 19.49,29.063 8.24,8.238 17.85,14.769 28.87,19.527 10.97,4.77 22.69,7.152 35.11,7.152 19.1,0 35.67,-5.781 49.69,-17.339 14.02,-11.571 24.34,-26.332 31.02,-44.262 -9.85,-3.75 -20.79,-8.012 -32.78,-12.77 -11.99,-4.808 -24.3,-9.73 -36.83,-14.769 -12.62,-5.082 -25.12,-10.121 -37.54,-15.16 -12.46,-5.071 -24.03,-9.801 -34.69,-14.141 5.19,-11.828 13.2,-21.398 24.06,-28.629 10.86,-7.23 23.2,-10.82 37.07,-10.82 9.26,0 18.09,1.558 26.49,4.769 8.36,3.16 15.47,7.5 21.25,13 L 7350,406.66" /><path
         id="path70"
         style="fill:#ffffff;fill-opacity:1;fill-rule:nonzero;stroke:none"
         d="m 7455,385.828 h 23.8281 V 718.101 H 7455 Z" /><path
         id="path72"
         style="fill:#ffffff;fill-opacity:1;fill-rule:nonzero;stroke:none"
         d="m 7612.38,385.84 h -23.7891 v 173.512 h 23.7891 z m -29.06,236.41 c 0,4.922 1.88,9.02 5.47,12.379 3.63,3.32 7.58,4.961 11.87,4.961 4.42,0 8.29,-1.641 11.72,-4.961 3.48,-3.359 5.28,-7.457 5.28,-12.379 0,-5.199 -1.8,-9.379 -5.28,-12.578 -3.43,-3.172 -7.3,-4.774 -11.72,-4.774 -4.29,0 -8.24,1.602 -11.87,4.774 -3.59,3.199 -5.47,7.379 -5.47,12.578" /><path
         id="path74"
         style="fill:#ffffff;fill-opacity:1;fill-rule:nonzero;stroke:none"
         d="m 7784.61,375.41 c -8.05,15.352 -15.74,30.66 -22.97,46.02 -7.23,15.308 -14.26,30.621 -21.17,45.968 -7.03,15.313 -13.99,30.633 -21.09,45.981 -7.15,15.312 -14.54,30.621 -22.31,45.973 h 25.59 c 8.63,-17.34 16.01,-32.614 22.11,-45.782 6.01,-13.16 11.36,-25 15.85,-35.539 4.42,-10.551 8.52,-20.39 12.27,-29.5 3.87,-9.101 7.7,-18.32 11.72,-27.57 4.14,9.25 7.89,18.469 11.52,27.57 3.67,9.11 7.7,18.949 12.19,29.5 4.41,10.539 9.77,22.379 15.78,35.539 6.1,13.168 13.48,28.442 22.19,45.782 h 25.51 c -15.55,-30.93 -30.08,-61.602 -43.48,-91.954 -13.52,-30.347 -28.05,-61.007 -43.71,-91.988" /><path
         id="path76"
         style="fill:#ffffff;fill-opacity:1;fill-rule:nonzero;stroke:none"
         d="m 8079.65,508.18 c -4.96,9.808 -11.92,17.539 -20.82,23.172 -8.99,5.66 -18.95,8.468 -30,8.468 -9.18,0 -17.89,-1.789 -25.98,-5.429 -8.12,-3.59 -15.15,-8.43 -21.25,-14.532 -6.09,-6.05 -10.9,-13.078 -14.37,-21.007 -3.44,-7.973 -5.16,-16.411 -5.16,-25.391 0,-4.652 0.47,-8.68 1.33,-12.152 8.9,3.75 18.48,7.652 28.59,11.722 10.12,4.059 20.24,8.16 30.39,12.379 10.12,4.18 20.04,8.238 29.89,12.149 9.84,3.902 18.94,7.421 27.38,10.621 z m 14.73,-101.52 c -8.36,-7.5 -18.21,-13.441 -29.54,-17.769 -11.25,-4.34 -22.96,-6.532 -35.07,-6.532 -12.74,0 -24.65,2.391 -35.82,7.153 -11.14,4.769 -20.79,11.207 -29.07,19.297 -8.24,8.121 -14.68,17.652 -19.49,28.671 -4.77,10.981 -7.23,22.7 -7.23,35.122 0,12.418 2.46,24.218 7.23,35.347 4.81,11.129 11.25,20.821 19.49,29.063 8.28,8.238 17.82,14.769 28.91,19.527 10.94,4.77 22.66,7.152 35.04,7.152 19.14,0 35.74,-5.781 49.69,-17.339 14.06,-11.571 24.37,-26.332 31.05,-44.262 -9.84,-3.75 -20.74,-8.012 -32.73,-12.77 -12,-4.808 -24.3,-9.73 -36.96,-14.769 -12.54,-5.082 -25,-10.121 -37.5,-15.16 -12.34,-5.071 -23.98,-9.801 -34.68,-14.141 5.27,-11.828 13.24,-21.398 24.1,-28.629 10.78,-7.23 23.16,-10.82 37.03,-10.82 9.29,0 18.08,1.558 26.52,4.769 8.36,3.16 15.47,7.5 21.21,13 l 17.82,-16.91" /><path
         id="path78"
         style="fill:#ffffff;fill-opacity:1;fill-rule:nonzero;stroke:none"
         d="m 8288.71,533.34 c -8.71,0 -16.95,-1.41 -24.92,-4.141 -7.97,-2.738 -15,-6.558 -21.02,-11.488 -6.09,-4.922 -10.97,-10.93 -14.53,-18 -3.67,-7.07 -5.43,-14.961 -5.43,-23.641 v -90.23 h -23.9 v 173.512 h 20.43 l 2.14,-44.68 c 3.48,7.539 7.97,14.258 13.4,20.187 5.55,5.903 11.57,10.981 18.01,15.161 6.56,4.218 13.32,7.46 20.43,9.761 7.03,2.309 13.79,3.481 20.16,3.481 l -4.77,-29.922" /><path
         id="path80"
         style="fill:#ffffff;fill-opacity:1;fill-rule:nonzero;stroke:none"
         d="m 8415.82,302.559 h -25.2 c 3.76,7.812 7.23,15.121 10.2,21.91 3.01,6.801 6.02,13.633 8.91,20.59 2.93,6.953 6.01,14.261 9.29,21.91 3.36,7.66 7.23,16.25 11.53,25.82 -13.32,26.602 -26.33,54.262 -38.99,83.051 -12.77,28.789 -25.78,56.601 -39.1,83.512 h 25.59 c 8.71,-17.34 16.21,-32.961 22.61,-46.832 6.37,-13.911 12.07,-26.559 17.15,-37.969 4.96,-11.41 9.57,-22.071 13.6,-31.871 4.02,-9.852 8.16,-19.379 12.18,-28.641 4.03,9.262 7.97,18.789 11.92,28.641 3.9,9.8 8.44,20.461 13.47,31.871 4.97,11.41 10.71,24.058 17.07,37.969 6.37,13.871 13.87,29.492 22.58,46.832 h 25.63 L 8415.82,302.559" /></g></g></svg>