<svg xmlns="http://www.w3.org/2000/svg" width="41" height="44" viewBox="0 0 41 44">
  <defs>
    <style>
      .cls-1 {
        fill: #60ba62;
        fill-rule: evenodd;
      }
    </style>
  </defs>
  <path id="Menu-icon" class="cls-1" d="M39.567,23.827H34.743L18.365,41.675v2.263h-1.3V41.192L32.841,24A2.716,2.716,0,0,0,30,24.826c-2.675,2.4-6.937,6.642-6.98,6.684L23.01,31.5l-0.446,1.849-1.27-.29L23.481,24c-1.4.249-1.543,0.72-1.916,2.577a10.016,10.016,0,0,1-1.884,4.275l0.01,0.017c-0.011.006-.021,0.009-0.033,0.015a12.667,12.667,0,0,1-3.2,2.864,11.392,11.392,0,0,0-4.288,5.2l-2.075,5.065-1.212-.47L10.7,39.108a7.554,7.554,0,0,1-.662-7.166c0.814-1.9.287-6.534-.03-8.012l-0.137-.1H1.425A1.565,1.565,0,0,1,0,22.128a1.567,1.567,0,0,1,1.43-1.7H1.97a18.2,18.2,0,0,1,16.513-17.3,1.26,1.26,0,0,1-.976-0.54,1.121,1.121,0,0,1-.054-1.1A2.52,2.52,0,0,1,18.848.172,6.9,6.9,0,0,1,22.111.165,2.525,2.525,0,0,1,23.53,1.483a1.12,1.12,0,0,1-.053,1.1,1.266,1.266,0,0,1-.973.545,18.2,18.2,0,0,1,16.52,17.3h0.543A1.568,1.568,0,0,1,41,22.128,1.565,1.565,0,0,1,39.567,23.827Zm-10.928.5a3.277,3.277,0,0,0-2.9,1.09l-1.568,1.525L24.121,26.9,23.575,29.16C24.941,27.821,26.995,25.83,28.639,24.328Zm-2.968-.5H24.862l-0.2.845,0.155-.151A6.055,6.055,0,0,1,25.671,23.827Zm-4.463,0h-7a3.755,3.755,0,0,1,.55,1.578c0.436,3.342,1.328,4.427,2,4.749a2.312,2.312,0,0,0,2-.251,8.908,8.908,0,0,0,1.528-3.574A5.857,5.857,0,0,1,21.208,23.827Zm-5.474,8.862a12.91,12.91,0,0,0,1.512-1.154,2.8,2.8,0,0,1-1.069-.244c-1.413-.678-2.3-2.551-2.716-5.727a1.95,1.95,0,0,0-.715-1.453,2.079,2.079,0,0,0-1.427-.2c0.446,2.108.767,6.541-.078,8.513a6.2,6.2,0,0,0,.1,5.182A12.642,12.642,0,0,1,15.734,32.689ZM21.246,4.306L20.622,4.28V1.867h1.64a1.3,1.3,0,0,0-.49-0.475,5.527,5.527,0,0,0-2.584.006,1.358,1.358,0,0,0-.469.47h1.643V4.28l-0.624.026A16.967,16.967,0,0,0,3.256,20.426h31.1A16.783,16.783,0,0,0,28.106,8.269l0.835-.975a18.038,18.038,0,0,1,6.723,13.13h2.076A16.973,16.973,0,0,0,21.246,4.306Zm18.3,17.389H28.057L1.939,21.7V21.694H1.425a0.727,0.727,0,0,0-.125.434,0.56,0.56,0,0,0,.157.436h8.974l0.181-.073,0.077,0.073,14.043,0,0.447-.048-0.012.048,14.4,0a0.751,0.751,0,0,0,.127-0.43A0.58,0.58,0,0,0,39.545,21.694Z"/>
</svg>
