<svg xmlns="http://www.w3.org/2000/svg" width="36" height="39" viewBox="0 0 36 39">
  <defs>
    <style>
      .cls-1 {
        fill: #60ba62;
        fill-rule: evenodd;
      }
    </style>
  </defs>
  <path id="Meter-icon" class="cls-1" d="M32.087,39H3.913A3.911,3.911,0,0,1,0,35.1V7.02a3.911,3.911,0,0,1,3.913-3.9h6.762a10.158,10.158,0,0,1,14.649,0h6.762A3.911,3.911,0,0,1,36,7.02V35.1A3.911,3.911,0,0,1,32.087,39ZM18,1.482a8.658,8.658,0,1,0,8.687,8.658A8.682,8.682,0,0,0,18,1.482ZM34.435,7.02A2.415,2.415,0,0,0,32.087,4.6H26.559a10.311,10.311,0,0,1,1.614,5.538,10.174,10.174,0,0,1-20.348,0A10.311,10.311,0,0,1,9.441,4.6H3.913A2.414,2.414,0,0,0,1.565,7.02V35.1a2.346,2.346,0,0,0,2.348,2.34H32.087a2.347,2.347,0,0,0,2.348-2.34V7.02ZM18.783,11.484V15.6a0.783,0.783,0,0,1-1.565,0V11.484A1.565,1.565,0,1,1,18.783,11.484Z"/>
</svg>
